  0
SECTION
  2
HEADER
  9
$ACADVER
  1
AC1009
  9
$INSBASE
 10
0.0
 20
0.0
 30
0.0
  9
$EXTMIN
 10
1.0000000000000000E+020
 20
1.0000000000000000E+020
 30
1.0000000000000000E+020
  9
$EXTMAX
 10
-1.0000000000000000E+020
 20
-1.0000000000000000E+020
 30
-1.0000000000000000E+020
  9
$LIMMIN
 10
0.0
 20
0.0
  9
$LIMMAX
 10
12.0
 20
9.0
  9
$ORTHOMODE
 70
     0
  9
$REGENMODE
 70
     1
  9
$FILLMODE
 70
     1
  9
$QTEXTMODE
 70
     0
  9
$MIRRTEXT
 70
     0
  9
$DRAGMODE
 70
     2
  9
$LTSCALE
 40
1.0
  9
$OSMODE
 70
    37
  9
$ATTMODE
 70
     1
  9
$TEXTSIZE
 40
0.2
  9
$TRACEWID
 40
0.05
  9
$TEXTSTYLE
  7
STANDARD
  9
$CLAYER
  8
0
  9
$CELTYPE
  6
BYLAYER
  9
$CECOLOR
 62
   256
  9
$DIMSCALE
 40
1.0
  9
$DIMASZ
 40
0.18
  9
$DIMEXO
 40
0.0625
  9
$DIMDLI
 40
0.38
  9
$DIMRND
 40
0.0
  9
$DIMDLE
 40
0.0
  9
$DIMEXE
 40
0.18
  9
$DIMTP
 40
0.0
  9
$DIMTM
 40
0.0
  9
$DIMTXT
 40
0.18
  9
$DIMCEN
 40
0.09
  9
$DIMTSZ
 40
0.0
  9
$DIMTOL
 70
     0
  9
$DIMLIM
 70
     0
  9
$DIMTIH
 70
     1
  9
$DIMTOH
 70
     1
  9
$DIMSE1
 70
     0
  9
$DIMSE2
 70
     0
  9
$DIMTAD
 70
     0
  9
$DIMZIN
 70
     0
  9
$DIMBLK
  1

  9
$DIMASO
 70
     1
  9
$DIMSHO
 70
     1
  9
$DIMPOST
  1

  9
$DIMAPOST
  1

  9
$DIMALT
 70
     0
  9
$DIMALTD
 70
     2
  9
$DIMALTF
 40
25.399999999999999
  9
$DIMLFAC
 40
1.0
  9
$DIMTOFL
 70
     0
  9
$DIMTVP
 40
0.0
  9
$DIMTIX
 70
     0
  9
$DIMSOXD
 70
     0
  9
$DIMSAH
 70
     0
  9
$DIMBLK1
  1

  9
$DIMBLK2
  1

  9
$DIMSTYLE
  2
STANDARD
  9
$DIMCLRD
 70
     0
  9
$DIMCLRE
 70
     0
  9
$DIMCLRT
 70
     0
  9
$DIMTFAC
 40
1.0
  9
$DIMGAP
 40
0.09
  9
$LUNITS
 70
     2
  9
$LUPREC
 70
     4
  9
$SKETCHINC
 40
0.1
  9
$FILLETRAD
 40
0.0
  9
$AUNITS
 70
     0
  9
$AUPREC
 70
     0
  9
$MENU
  1
.
  9
$ELEVATION
 40
0.0
  9
$PELEVATION
 40
0.0
  9
$THICKNESS
 40
0.0
  9
$LIMCHECK
 70
     0
  9
$BLIPMODE
 70
     0
  9
$CHAMFERA
 40
0.0
  9
$CHAMFERB
 40
0.0
  9
$SKPOLY
 70
     0
  9
$TDCREATE
 40
2458009.4044400812
  9
$TDUPDATE
 40
2458009.4044400812
  9
$TDINDWG
 40
0.0000021759
  9
$TDUSRTIMER
 40
0.0000021759
  9
$USRTIMER
 70
     1
  9
$ANGBASE
 50
0.0
  9
$ANGDIR
 70
     0
  9
$PDMODE
 70
     0
  9
$PDSIZE
 40
0.0
  9
$PLINEWID
 40
0.0
  9
$COORDS
 70
     0
  9
$SPLFRAME
 70
     0
  9
$SPLINETYPE
 70
     6
  9
$SPLINESEGS
 70
     8
  9
$ATTDIA
 70
     1
  9
$ATTREQ
 70
     1
  9
$HANDLING
 70
     1
  9
$HANDSEED
  5
4B5
  9
$SURFTAB1
 70
     6
  9
$SURFTAB2
 70
     6
  9
$SURFTYPE
 70
     6
  9
$SURFU
 70
     6
  9
$SURFV
 70
     6
  9
$UCSNAME
  2

  9
$UCSORG
 10
0.0
 20
0.0
 30
0.0
  9
$UCSXDIR
 10
1.0
 20
0.0
 30
0.0
  9
$UCSYDIR
 10
0.0
 20
1.0
 30
0.0
  9
$PUCSNAME
  2

  9
$PUCSORG
 10
0.0
 20
0.0
 30
0.0
  9
$PUCSXDIR
 10
1.0
 20
0.0
 30
0.0
  9
$PUCSYDIR
 10
0.0
 20
1.0
 30
0.0
  9
$USERI1
 70
     0
  9
$USERI2
 70
     0
  9
$USERI3
 70
     0
  9
$USERI4
 70
     0
  9
$USERI5
 70
     0
  9
$USERR1
 40
0.0
  9
$USERR2
 40
0.0
  9
$USERR3
 40
0.0
  9
$USERR4
 40
0.0
  9
$USERR5
 40
0.0
  9
$WORLDVIEW
 70
     1
  9
$SHADEDGE
 70
     3
  9
$SHADEDIF
 70
    70
  9
$TILEMODE
 70
     1
  9
$MAXACTVP
 70
    64
  9
$PLIMCHECK
 70
     0
  9
$PEXTMIN
 10
1.0000000000000000E+020
 20
1.0000000000000000E+020
 30
1.0000000000000000E+020
  9
$PEXTMAX
 10
-1.0000000000000000E+020
 20
-1.0000000000000000E+020
 30
-1.0000000000000000E+020
  9
$PLIMMIN
 10
0.0
 20
0.0
  9
$PLIMMAX
 10
12.0
 20
9.0
  9
$UNITMODE
 70
     0
  9
$VISRETAIN
 70
     1
  9
$PLINEGEN
 70
     0
  9
$PSLTSCALE
 70
     1
  0
ENDSEC
  0
SECTION
  2
TABLES
  0
TABLE
  2
VPORT
 70
     1
  0
VPORT
  2
*ACTIVE
 70
     0
 10
0.0
 20
0.0
 11
1.0
 21
1.0
 12
2342.5515966862272
 22
1326.865038293048
 13
0.0
 23
0.0
 14
1.0
 24
1.0
 15
0.0
 25
0.0
 16
0.0
 26
0.0
 36
1.0
 17
0.0
 27
0.0
 37
0.0
 40
9.0
 41
1.765478424015009
 42
50.0
 43
0.0
 44
0.0
 50
0.0
 51
0.0
 71
     0
 72
   100
 73
     1
 74
     1
 75
     0
 76
     0
 77
     0
 78
     0
  0
ENDTAB
  0
TABLE
  2
LTYPE
 70
     1
  0
LTYPE
  2
CONTINUOUS
 70
     0
  3
Solid line
 72
    65
 73
     0
 40
0.0
  0
ENDTAB
  0
TABLE
  2
LAYER
 70
     3
  0
LAYER
  2
0
 70
     0
 62
     7
  6
CONTINUOUS
  0
LAYER
  2
DEFPOINTS
 70
     0
 62
     7
  6
CONTINUOUS
  0
LAYER
  2
RM$
 70
     0
 62
     3
  6
CONTINUOUS
  0
ENDTAB
  0
TABLE
  2
STYLE
 70
     2
  0
STYLE
  2
STANDARD
 70
     0
 40
0.0
 41
1.0
 50
0.0
 71
     0
 42
0.2
  3
txt
  4

  0
STYLE
  2
ANNOTATIVE
 70
     0
 40
0.0
 41
1.0
 50
0.0
 71
     0
 42
0.2
  3
txt
  4

  0
ENDTAB
  0
TABLE
  2
VIEW
 70
     0
  0
ENDTAB
  0
TABLE
  2
UCS
 70
     0
  0
ENDTAB
  0
TABLE
  2
APPID
 70
     4
  0
APPID
  2
ACAD
 70
     0
  0
APPID
  2
ACADANNOTATIVE
 70
     0
  0
APPID
  2
AFM10
 70
     0
  0
APPID
  2
ACAD_MLEADERVER
 70
     0
  0
ENDTAB
  0
TABLE
  2
DIMSTYLE
 70
     2
  0
DIMSTYLE
  2
STANDARD
 70
     0
  3

  4

  5

  6

  7

 40
1.0
 41
0.18
 42
0.0625
 43
0.38
 44
0.18
 45
0.0
 46
0.0
 47
0.0
 48
0.0
140
0.18
141
0.09
142
0.0
143
25.399999999999999
144
1.0
145
0.0
146
1.0
147
0.09
 71
     0
 72
     0
 73
     1
 74
     1
 75
     0
 76
     0
 77
     0
 78
     0
170
     0
171
     2
172
     0
173
     0
174
     0
175
     0
176
     0
177
     0
178
     0
  0
DIMSTYLE
  2
ANNOTATIVE
 70
     0
  3

  4

  5

  6

  7

 40
1.0
 41
0.18
 42
0.0625
 43
0.38
 44
0.18
 45
0.0
 46
0.0
 47
0.0
 48
0.0
140
0.18
141
0.09
142
0.0
143
25.399999999999999
144
1.0
145
0.0
146
1.0
147
0.09
 71
     0
 72
     0
 73
     1
 74
     1
 75
     0
 76
     0
 77
     0
 78
     0
170
     0
171
     2
172
     0
173
     0
174
     0
175
     0
176
     0
177
     0
178
     0
  0
ENDTAB
  0
ENDSEC
  0
SECTION
  2
BLOCKS
  0
BLOCK
  8
0
  2
$MODEL_SPACE
 70
     0
 10
0.0
 20
0.0
 30
0.0
  3
$MODEL_SPACE
  1

  0
ENDBLK
  5
72
  8
0
  0
BLOCK
 67
     1
  8
0
  2
$PAPER_SPACE
 70
     0
 10
0.0
 20
0.0
 30
0.0
  3
$PAPER_SPACE
  1

  0
ENDBLK
  5
6E
 67
     1
  8
0
  0
ENDSEC
  0
SECTION
  2
ENTITIES
  0
POLYLINE
  5
79
  8
RM$
  6
CONTINUOUS
 66
     1
 10
0.0
 20
0.0
 30
0.0
 70
     1
1001
AFM10
1070
     3
1000
RM
1002
{
1000
FCO361A
1000
Q2
1000
1
1002
}
1000
FCO361AQ2
1000
E0E7
1000
DIRITTI: IMBARCO PAX
1010
4.1945304928231053
1020
4.3430410358123481
1030
0.0
1040
0.2
1040
0.0
1070
     4
1002
{
1005
0
1005
0
1005
0
1005
0
1005
0
1005
0
1002
}
  0
VERTEX
  5
38E
  8
RM$
  6
CONTINUOUS
 10
12.253834095978201
 20
41.7963911660067
 30
0.0
  0
VERTEX
  5
38F
  8
RM$
  6
CONTINUOUS
 10
12.253935998653089
 20
41.796343327164898
 30
0.0
  0
VERTEX
  5
390
  8
RM$
  6
CONTINUOUS
 10
12.253981094455529
 20
41.796397017443937
 30
0.0
  0
VERTEX
  5
391
  8
RM$
  6
CONTINUOUS
 10
12.25394463018122
 20
41.796413992578913
 30
0.0
  0
VERTEX
  5
392
  8
RM$
  6
CONTINUOUS
 10
12.253942603765219
 20
41.796414943871603
 30
0.0
  0
VERTEX
  5
393
  8
RM$
  6
CONTINUOUS
 10
12.25394453596383
 20
41.796417260855982
 30
0.0
  0
VERTEX
  5
394
  8
RM$
  6
CONTINUOUS
 10
12.25391974222212
 20
41.796428848092631
 30
0.0
  0
VERTEX
  5
395
  8
RM$
  6
CONTINUOUS
 10
12.25391770635963
 20
41.796429807540243
 30
0.0
  0
VERTEX
  5
396
  8
RM$
  6
CONTINUOUS
 10
12.253933392100709
 20
41.796448478446827
 30
0.0
  0
VERTEX
  5
397
  8
RM$
  6
CONTINUOUS
 10
12.2539353462621
 20
41.796450807537113
 30
0.0
  0
VERTEX
  5
398
  8
RM$
  6
CONTINUOUS
 10
12.253892990658191
 20
41.79646126481726
 30
0.0
  0
SEQEND
  5
399
  8
RM$
  6
CONTINUOUS
  0
POLYLINE
  5
7E
  8
RM$
  6
CONTINUOUS
 66
     1
 10
0.0
 20
0.0
 30
0.0
 70
     1
1001
AFM10
1070
     3
1000
RM
1002
{
1000
FCO361A
1000
Q2
1000
2
1002
}
1000
FCO361AQ2
1000
E0E9
1000
 
1010
0.9851400181069038
1020
-2.6450200659455732
1030
0.0
1040
0.2
1040
0.0
1070
     4
1002
{
1005
0
1005
0
1005
0
1005
0
1005
0
1005
0
1002
}
  0
VERTEX
  5
39A
  8
RM$
  6
CONTINUOUS
 10
12.25391789607793
 20
41.796490908082617
 30
0.0
  0
VERTEX
  5
39B
  8
RM$
  6
CONTINUOUS
 10
12.25395453950963
 20
41.796473718799419
 30
0.0
  0
VERTEX
  5
39C
  8
RM$
  6
CONTINUOUS
 10
12.2539353462621
 20
41.796450807537113
 30
0.0
  0
VERTEX
  5
39D
  8
RM$
  6
CONTINUOUS
 10
12.253892990658191
 20
41.79646126481726
 30
0.0
  0
SEQEND
  5
39E
  8
RM$
  6
CONTINUOUS
  0
POLYLINE
  5
7F
  8
RM$
  6
CONTINUOUS
 66
     1
 10
0.0
 20
0.0
 30
0.0
 70
     1
1001
AFM10
1070
     3
1000
RM
1002
{
1000
FCO361A
1000
Q2
1000
3
1002
}
1000
FCO361AQ2
1000
E0F7
1000
 
1010
0.3512799484306015
1020
-5.6720591256162152
1030
0.0
1040
0.2
1040
0.0
1070
     4
1002
{
1005
0
1005
0
1005
0
1005
0
1005
0
1005
0
1002
}
  0
VERTEX
  5
39F
  8
RM$
  6
CONTINUOUS
 10
12.25358305302864
 20
41.796613230387003
 30
0.0
  0
VERTEX
  5
3A0
  8
RM$
  6
CONTINUOUS
 10
12.25360550571064
 20
41.796602690197631
 30
0.0
  0
VERTEX
  5
3A1
  8
RM$
  6
CONTINUOUS
 10
12.25358857363403
 20
41.796582511965617
 30
0.0
  0
VERTEX
  5
3A2
  8
RM$
  6
CONTINUOUS
 10
12.25358356572915
 20
41.796584862877481
 30
0.0
  0
VERTEX
  5
3A3
  8
RM$
  6
CONTINUOUS
 10
12.253581688070989
 20
41.7965826214947
 30
0.0
  0
VERTEX
  5
3A4
  8
RM$
  6
CONTINUOUS
 10
12.25359329671902
 20
41.796577197010158
 30
0.0
  0
VERTEX
  5
3A5
  8
RM$
  6
CONTINUOUS
 10
12.25356847903061
 20
41.79654759355634
 30
0.0
  0
VERTEX
  5
3A6
  8
RM$
  6
CONTINUOUS
 10
12.253565145400669
 20
41.796549158496383
 30
0.0
  0
VERTEX
  5
3A7
  8
RM$
  6
CONTINUOUS
 10
12.253565438739461
 20
41.796549507857492
 30
0.0
  0
VERTEX
  5
3A8
  8
RM$
  6
CONTINUOUS
 10
12.253566449622969
 20
41.796549041270758
 30
0.0
  0
VERTEX
  5
3A9
  8
RM$
  6
CONTINUOUS
 10
12.25356654191498
 20
41.796549151190739
 30
0.0
  0
VERTEX
  5
3AA
  8
RM$
  6
CONTINUOUS
 10
12.253564301807719
 20
41.796550204423568
 30
0.0
  0
VERTEX
  5
3AB
  8
RM$
  6
CONTINUOUS
 10
12.253564209515719
 20
41.796550094503587
 30
0.0
  0
VERTEX
  5
3AC
  8
RM$
  6
CONTINUOUS
 10
12.253565225739059
 20
41.796549610806352
 30
0.0
  0
VERTEX
  5
3AD
  8
RM$
  6
CONTINUOUS
 10
12.25356493266977
 20
41.796549258360827
 30
0.0
  0
VERTEX
  5
3AE
  8
RM$
  6
CONTINUOUS
 10
12.25353970596472
 20
41.796561100785702
 30
0.0
  0
VERTEX
  5
3AF
  8
RM$
  6
CONTINUOUS
 10
12.253564555983271
 20
41.796590742820442
 30
0.0
  0
VERTEX
  5
3B0
  8
RM$
  6
CONTINUOUS
 10
12.25356945962128
 20
41.796588377281402
 30
0.0
  0
VERTEX
  5
3B1
  8
RM$
  6
CONTINUOUS
 10
12.25357132367184
 20
41.796590600789393
 30
0.0
  0
VERTEX
  5
3B2
  8
RM$
  6
CONTINUOUS
 10
12.25356611858721
 20
41.796593030369337
 30
0.0
  0
SEQEND
  5
3B3
  8
RM$
  6
CONTINUOUS
  0
POLYLINE
  5
80
  8
RM$
  6
CONTINUOUS
 66
     1
 10
0.0
 20
0.0
 30
0.0
 70
     1
1001
AFM10
1070
     3
1000
RM
1002
{
1000
FCO361A
1000
Q2
1000
4
1002
}
1000
FCO361AQ2
1000
E0FB
1000
B.U.E.: UFFICI E ALTRI LOC. OPER.VI
1010
0.153691059385892
1020
-4.3862037505023181
1030
0.0
1040
0.2
1040
0.0
1070
     4
1002
{
1005
0
1005
0
1005
0
1005
0
1005
0
1005
0
1002
}
  0
VERTEX
  5
3B4
  8
RM$
  6
CONTINUOUS
 10
12.254014787527071
 20
41.79640954289075
 30
0.0
  0
VERTEX
  5
3B5
  8
RM$
  6
CONTINUOUS
 10
12.254044102054101
 20
41.796395717182378
 30
0.0
  0
VERTEX
  5
3B6
  8
RM$
  6
CONTINUOUS
 10
12.25400175027961
 20
41.79634487202248
 30
0.0
  0
VERTEX
  5
3B7
  8
RM$
  6
CONTINUOUS
 10
12.25397214685025
 20
41.796358679932112
 30
0.0
  0
SEQEND
  5
3B8
  8
RM$
  6
CONTINUOUS
  0
POLYLINE
  5
81
  8
RM$
  6
CONTINUOUS
 66
     1
 10
0.0
 20
0.0
 30
0.0
 70
     1
1001
AFM10
1070
     3
1000
RM
1002
{
1000
FCO361A
1000
Q2
1000
5
1002
}
1000
FCO361AQ2
1000
E0FC
1000
 
1010
0.3912255000323057
1020
-2.3554422578308731
1030
0.0
1040
0.2
1040
0.0
1070
     4
1002
{
1005
0
1005
0
1005
0
1005
0
1005
0
1005
0
1002
}
  0
VERTEX
  5
3B9
  8
RM$
  6
CONTINUOUS
 10
12.25395661515959
 20
41.796472813089828
 30
0.0
  0
VERTEX
  5
3BA
  8
RM$
  6
CONTINUOUS
 10
12.253981148760859
 20
41.796461384928143
 30
0.0
  0
VERTEX
  5
3BB
  8
RM$
  6
CONTINUOUS
 10
12.253959851037481
 20
41.796436024018227
 30
0.0
  0
VERTEX
  5
3BC
  8
RM$
  6
CONTINUOUS
 10
12.253935416163509
 20
41.796447526347471
 30
0.0
  0
SEQEND
  5
3BD
  8
RM$
  6
CONTINUOUS
  0
POLYLINE
  5
82
  8
RM$
  6
CONTINUOUS
 66
     1
 10
0.0
 20
0.0
 30
0.0
 70
     1
1001
AFM10
1070
     3
1000
RM
1002
{
1000
FCO361A
1000
Q2
1000
6
1002
}
1000
FCO361AQ2
1000
E0FD
1000
 
1010
-64.412784856162034
1020
-14.0688102953136
1030
0.0
1040
0.2
1040
0.0
1070
     4
1002
{
1005
0
1005
0
1005
0
1005
0
1005
0
1005
0
1002
}
  0
VERTEX
  5
3BE
  8
RM$
  6
CONTINUOUS
 10
12.25393447290725
 20
41.796446381515707
 30
0.0
  0
VERTEX
  5
3BF
  8
RM$
  6
CONTINUOUS
 10
12.25395890715342
 20
41.796434881294907
 30
0.0
  0
VERTEX
  5
3C0
  8
RM$
  6
CONTINUOUS
 10
12.253945142399941
 20
41.796418503238939
 30
0.0
  0
VERTEX
  5
3C1
  8
RM$
  6
CONTINUOUS
 10
12.253920708942969
 20
41.796430003087423
 30
0.0
  0
SEQEND
  5
3C2
  8
RM$
  6
CONTINUOUS
  0
POLYLINE
  5
83
  8
RM$
  6
CONTINUOUS
 66
     1
 10
0.0
 20
0.0
 30
0.0
 70
     1
1001
AFM10
1070
     3
1000
RM
1002
{
1000
FCO361A
1000
Q2
1000
7
1002
}
1000
FCO361AQ2
1000
E0FE
1000

1010
1.2252853400423189
1020
-2.359333617379888
1030
0.0
1040
0.2
1040
0.0
1070
     4
1002
{
1005
0
1005
0
1005
0
1005
0
1005
0
1005
0
1002
}
  0
VERTEX
  5
3C3
  8
RM$
  6
CONTINUOUS
 10
12.25398318998209
 20
41.796460437364033
 30
0.0
  0
VERTEX
  5
3C4
  8
RM$
  6
CONTINUOUS
 10
12.25402217086055
 20
41.796442303771492
 30
0.0
  0
VERTEX
  5
3C5
  8
RM$
  6
CONTINUOUS
 10
12.253984310101171
 20
41.796397400211021
 30
0.0
  0
VERTEX
  5
3C6
  8
RM$
  6
CONTINUOUS
 10
12.25394557767485
 20
41.796415635297087
 30
0.0
  0
SEQEND
  5
3C7
  8
RM$
  6
CONTINUOUS
  0
POLYLINE
  5
84
  8
RM$
  6
CONTINUOUS
 66
     1
 10
0.0
 20
0.0
 30
0.0
 70
     1
1001
AFM10
1070
     3
1000
RM
1002
{
1000
FCO361A
1000
Q2
1000
8
1002
}
1000
FCO361AQ2
1000
E0FF
1000
B.U.E.: UFFICI E ALTRI LOC. OPER.VI
1010
1.3811433775117621
1020
-2.3446279562776899
1030
0.0
1040
0.2
1040
0.0
1070
     4
1002
{
1005
0
1005
0
1005
0
1005
0
1005
0
1005
0
1002
}
  0
VERTEX
  5
3C8
  8
RM$
  6
CONTINUOUS
 10
12.254023055437489
 20
41.79644188907745
 30
0.0
  0
VERTEX
  5
3C9
  8
RM$
  6
CONTINUOUS
 10
12.25406590218857
 20
41.796421889165899
 30
0.0
  0
VERTEX
  5
3CA
  8
RM$
  6
CONTINUOUS
 10
12.254046803517371
 20
41.79639897751111
 30
0.0
  0
VERTEX
  5
3CB
  8
RM$
  6
CONTINUOUS
 10
12.25400390995078
 20
41.796419112868698
 30
0.0
  0
SEQEND
  5
3CC
  8
RM$
  6
CONTINUOUS
  0
POLYLINE
  5
85
  8
RM$
  6
CONTINUOUS
 66
     1
 10
0.0
 20
0.0
 30
0.0
 70
     1
1001
AFM10
1070
     3
1000
rm
1002
{
1000
FCO361A
1000
Q2
1000
9
1002
}
1000
FCO361AQ2
1000
E280
1000
ALTRE SUBCONCESSIONI NON RETAIL
1010
1.8414618441602211
1020
-2.473705898388288
1030
0.0
1040
0.2
1040
0.0
1070
     4
1002
{
1005
0
1005
0
1005
0
1005
0
1005
0
1005
0
1002
}
  0
VERTEX
  5
86
  8
RM$
  6
CONTINUOUS
 10
12.254096125154939
 20
41.796117838781427
 30
0.0
  0
VERTEX
  5
87
  8
RM$
  6
CONTINUOUS
 10
12.25414640209706
 20
41.796094147666942
 30
0.0
  0
VERTEX
  5
88
  8
RM$
  6
CONTINUOUS
 10
12.25412579407962
 20
41.796069493701467
 30
0.0
  0
VERTEX
  5
89
  8
RM$
  6
CONTINUOUS
 10
12.254075408174449
 20
41.796093057812669
 30
0.0
  0
SEQEND
  5
8A
  8
RM$
  6
CONTINUOUS
  0
POLYLINE
  5
8B
  8
RM$
  6
CONTINUOUS
 66
     1
 10
0.0
 20
0.0
 30
0.0
 70
     1
1001
AFM10
1070
     3
1000
rm
1002
{
1000
FCO361A
1000
Q2
1000
10
1002
}
1000
FCO361AQ2
1000
E286
1000

1010
-4.0520540748839258
1020
-2.462322959676384
1030
0.0
1040
0.2
1040
0.0
1070
     4
1002
{
1005
0
1005
0
1005
0
1005
0
1005
0
1005
0
1002
}
  0
VERTEX
  5
8C
  8
RM$
  6
CONTINUOUS
 10
12.25420441475816
 20
41.796066898034049
 30
0.0
  0
VERTEX
  5
8D
  8
RM$
  6
CONTINUOUS
 10
12.2541830052667
 20
41.796041446375597
 30
0.0
  0
VERTEX
  5
8E
  8
RM$
  6
CONTINUOUS
 10
12.25412609747374
 20
41.796068161815867
 30
0.0
  0
VERTEX
  5
8F
  8
RM$
  6
CONTINUOUS
 10
12.25414742101583
 20
41.796093669274931
 30
0.0
  0
SEQEND
  5
90
  8
RM$
  6
CONTINUOUS
  0
POLYLINE
  5
91
  8
RM$
  6
CONTINUOUS
 66
     1
 10
0.0
 20
0.0
 30
0.0
 70
     1
1001
AFM10
1070
     3
1000
rm
1002
{
1000
FCO361A
1000
Q2
1000
11
1002
}
1000
FCO361AQ2
1000
E28C
1000

1010
-101.83046406257201
1020
8.1184038087958452
1030
0.0
1040
0.2
1040
0.0
1070
     4
1002
{
1005
0
1005
0
1005
0
1005
0
1005
0
1005
0
1002
}
  0
VERTEX
  5
92
  8
RM$
  6
CONTINUOUS
 10
12.254214672588279
 20
41.796079083848561
 30
0.0
  0
VERTEX
  5
93
  8
RM$
  6
CONTINUOUS
 10
12.25420505587384
 20
41.796067659649147
 30
0.0
  0
VERTEX
  5
94
  8
RM$
  6
CONTINUOUS
 10
12.254164351911511
 20
41.796086862868222
 30
0.0
  0
VERTEX
  5
95
  8
RM$
  6
CONTINUOUS
 10
12.254173974466619
 20
41.796098284315498
 30
0.0
  0
SEQEND
  5
96
  8
RM$
  6
CONTINUOUS
  0
POLYLINE
  5
97
  8
RM$
  6
CONTINUOUS
 66
     1
 10
0.0
 20
0.0
 30
0.0
 70
     1
1001
AFM10
1070
     3
1000
rm
1002
{
1000
FCO361A
1000
Q2
1000
12
1002
}
1000
FCO361AQ2
1000
E292
1000

1010
-87.191793171281461
1020
8.1092622539727017
1030
0.0
1040
0.2
1040
0.0
1070
     4
1002
{
1005
0
1005
0
1005
0
1005
0
1005
0
1005
0
1002
}
  0
VERTEX
  5
98
  8
RM$
  6
CONTINUOUS
 10
12.25410632788218
 20
41.796130043518673
 30
0.0
  0
VERTEX
  5
99
  8
RM$
  6
CONTINUOUS
 10
12.25417295693943
 20
41.796098764361837
 30
0.0
  0
VERTEX
  5
9A
  8
RM$
  6
CONTINUOUS
 10
12.254163334384449
 20
41.796087342914483
 30
0.0
  0
VERTEX
  5
9B
  8
RM$
  6
CONTINUOUS
 10
12.254096763090439
 20
41.796118601894719
 30
0.0
  0
SEQEND
  5
9C
  8
RM$
  6
CONTINUOUS
  0
POLYLINE
  5
9D
  8
RM$
  6
CONTINUOUS
 66
     1
 10
0.0
 20
0.0
 30
0.0
 70
     1
1001
AFM10
1070
     3
1000
rm
1002
{
1000
FCO361A
1000
Q2
1000
13
1002
}
1000
FCO361AQ2
1000
E298
1000

1010
2.0844050470623179
1020
-2.2871917489683251
1030
0.0
1040
0.2
1040
0.0
1070
     4
1002
{
1005
0
1005
0
1005
0
1005
0
1005
0
1005
0
1002
}
  0
VERTEX
  5
9E
  8
RM$
  6
CONTINUOUS
 10
12.254176590668299
 20
41.7961285669085
 30
0.0
  0
VERTEX
  5
9F
  8
RM$
  6
CONTINUOUS
 10
12.25423374184453
 20
41.796101737204182
 30
0.0
  0
VERTEX
  5
A0
  8
RM$
  6
CONTINUOUS
 10
12.254215313705499
 20
41.796079845465151
 30
0.0
  0
VERTEX
  5
A1
  8
RM$
  6
CONTINUOUS
 10
12.254158333587389
 20
41.796106727403412
 30
0.0
  0
SEQEND
  5
A2
  8
RM$
  6
CONTINUOUS
  0
POLYLINE
  5
A3
  8
RM$
  6
CONTINUOUS
 66
     1
 10
0.0
 20
0.0
 30
0.0
 70
     1
1001
AFM10
1070
     3
1000
rm
1002
{
1000
FCO361A
1000
Q2
1000
14
1002
}
1000
FCO361AQ2
1000
E2E9
1000
B.U.E.: BANCHI CHECK-IN/GATE
1010
-3.6874182438477869
1020
0.2687702813418582
1030
0.0
1040
0.2
1040
0.0
1070
     4
1002
{
1005
0
1005
0
1005
0
1005
0
1005
0
1005
0
1002
}
  0
VERTEX
  5
A4
  8
RM$
  6
CONTINUOUS
 10
12.253695466155641
 20
41.796508879108067
 30
0.0
  0
VERTEX
  5
A5
  8
RM$
  6
CONTINUOUS
 10
12.253634992282651
 20
41.796537268062032
 30
0.0
  0
VERTEX
  5
A6
  8
RM$
  6
CONTINUOUS
 10
12.253647822868469
 20
41.796552572797793
 30
0.0
  0
VERTEX
  5
A7
  8
RM$
  6
CONTINUOUS
 10
12.253708287892961
 20
41.796524187995068
 30
0.0
  0
SEQEND
  5
A8
  8
RM$
  6
CONTINUOUS
  0
POLYLINE
  5
A9
  8
RM$
  6
CONTINUOUS
 66
     1
 10
0.0
 20
0.0
 30
0.0
 70
     1
1001
AFM10
1070
     3
1000
rm
1002
{
1000
FCO361A
1000
Q2
1000
15
1002
}
1000
FCO361AQ2
1000
E2EF
1000
B.U.E.: BANCHI CHECK-IN/GATE
1010
1.61989952152362
1020
-1.965941591653972
1030
0.0
1040
0.2
1040
0.0
1070
     4
1002
{
1005
0
1005
0
1005
0
1005
0
1005
0
1005
0
1002
}
  0
VERTEX
  5
AA
  8
RM$
  6
CONTINUOUS
 10
12.25370930928708
 20
41.796523708509618
 30
0.0
  0
VERTEX
  5
AB
  8
RM$
  6
CONTINUOUS
 10
12.253696486690259
 20
41.79650839932556
 30
0.0
  0
VERTEX
  5
AC
  8
RM$
  6
CONTINUOUS
 10
12.253744355865059
 20
41.796485928199807
 30
0.0
  0
VERTEX
  5
AD
  8
RM$
  6
CONTINUOUS
 10
12.25375716567294
 20
41.796501242685387
 30
0.0
  0
SEQEND
  5
AE
  8
RM$
  6
CONTINUOUS
  0
POLYLINE
  5
AF
  8
RM$
  6
CONTINUOUS
 66
     1
 10
0.0
 20
0.0
 30
0.0
 70
     1
1001
AFM10
1070
     3
1000
rm
1002
{
1000
FCO361A
1000
Q2
1000
16
1002
}
1000
FCO361AQ2
1000
E2F5
1000
B.U.E.: BANCHI CHECK-IN/GATE
1010
1.5999696225044311
1020
-1.938600869849324
1030
0.0
1040
0.2
1040
0.0
1070
     4
1002
{
1005
0
1005
0
1005
0
1005
0
1005
0
1005
0
1002
}
  0
VERTEX
  5
B0
  8
RM$
  6
CONTINUOUS
 10
12.25375818580634
 20
41.796500763790981
 30
0.0
  0
VERTEX
  5
B1
  8
RM$
  6
CONTINUOUS
 10
12.25374537445386
 20
41.796485450030517
 30
0.0
  0
VERTEX
  5
B2
  8
RM$
  6
CONTINUOUS
 10
12.25379280936564
 20
41.796463182035623
 30
0.0
  0
VERTEX
  5
B3
  8
RM$
  6
CONTINUOUS
 10
12.253805620889731
 20
41.796478495707333
 30
0.0
  0
SEQEND
  5
B4
  8
RM$
  6
CONTINUOUS
  0
POLYLINE
  5
B5
  8
RM$
  6
CONTINUOUS
 66
     1
 10
0.0
 20
0.0
 30
0.0
 70
     1
1001
AFM10
1070
     3
1000
rm
1002
{
1000
FCO361A
1000
Q2
1000
17
1002
}
1000
FCO361AQ2
1000
E2FB
1000
B.U.E.: BANCHI CHECK-IN/GATE
1010
-3.0707614799030121
1020
0.0604923566570506
1030
0.0
1040
0.2
1040
0.0
1070
     4
1002
{
1005
0
1005
0
1005
0
1005
0
1005
0
1005
0
1002
}
  0
VERTEX
  5
B6
  8
RM$
  6
CONTINUOUS
 10
12.254094571971271
 20
41.79632151885658
 30
0.0
  0
VERTEX
  5
B7
  8
RM$
  6
CONTINUOUS
 10
12.25404674258718
 20
41.796344022485677
 30
0.0
  0
VERTEX
  5
B8
  8
RM$
  6
CONTINUOUS
 10
12.254059553217401
 20
41.796359288260099
 30
0.0
  0
VERTEX
  5
B9
  8
RM$
  6
CONTINUOUS
 10
12.254084026251039
 20
41.796347799444703
 30
0.0
  0
VERTEX
  5
BA
  8
RM$
  6
CONTINUOUS
 10
12.254107406013111
 20
41.79633682385451
 30
0.0
  0
SEQEND
  5
BB
  8
RM$
  6
CONTINUOUS
  0
POLYLINE
  5
BC
  8
RM$
  6
CONTINUOUS
 66
     1
 10
0.0
 20
0.0
 30
0.0
 70
     1
1001
AFM10
1070
     3
1000
rm
1002
{
1000
FCO361A
1000
Q2
1000
18
1002
}
1000
FCO361AQ2
1000
E302
1000
B.U.E.: BANCHI CHECK-IN/GATE
1010
1.636939171527046
1020
-1.9360362621955569
1030
0.0
1040
0.2
1040
0.0
1070
     4
1002
{
1005
0
1005
0
1005
0
1005
0
1005
0
1005
0
1002
}
  0
VERTEX
  5
BD
  8
RM$
  6
CONTINUOUS
 10
12.25410842497106
 20
41.796336345506212
 30
0.0
  0
VERTEX
  5
BE
  8
RM$
  6
CONTINUOUS
 10
12.254095594337601
 20
41.796321040808607
 30
0.0
  0
VERTEX
  5
BF
  8
RM$
  6
CONTINUOUS
 10
12.25414369543893
 20
41.796298525176127
 30
0.0
  0
VERTEX
  5
C0
  8
RM$
  6
CONTINUOUS
 10
12.254156488420429
 20
41.79631378217217
 30
0.0
  0
SEQEND
  5
C1
  8
RM$
  6
CONTINUOUS
  0
POLYLINE
  5
C2
  8
RM$
  6
CONTINUOUS
 66
     1
 10
0.0
 20
0.0
 30
0.0
 70
     1
1001
AFM10
1070
     3
1000
rm
1002
{
1000
FCO361A
1000
Q2
1000
19
1002
}
1000
FCO361AQ2
1000
E308
1000
B.U.E.: BANCHI CHECK-IN/GATE
1010
-3.030764330411329
1020
0.1142204641364515
1030
0.0
1040
0.2
1040
0.0
1070
     4
1002
{
1005
0
1005
0
1005
0
1005
0
1005
0
1005
0
1002
}
  0
VERTEX
  5
C3
  8
RM$
  6
CONTINUOUS
 10
12.254252325059101
 20
41.796245475021891
 30
0.0
  0
VERTEX
  5
C4
  8
RM$
  6
CONTINUOUS
 10
12.25420499547185
 20
41.796267693926467
 30
0.0
  0
VERTEX
  5
C5
  8
RM$
  6
CONTINUOUS
 10
12.254219025094701
 20
41.796284424343433
 30
0.0
  0
VERTEX
  5
C6
  8
RM$
  6
CONTINUOUS
 10
12.25424320311963
 20
41.796273073957963
 30
0.0
  0
VERTEX
  5
C7
  8
RM$
  6
CONTINUOUS
 10
12.254266362737649
 20
41.796262201655381
 30
0.0
  0
SEQEND
  5
C8
  8
RM$
  6
CONTINUOUS
  0
POLYLINE
  5
C9
  8
RM$
  6
CONTINUOUS
 66
     1
 10
0.0
 20
0.0
 30
0.0
 70
     1
1001
AFM10
1070
     3
1000
rm
1002
{
1000
FCO361A
1000
Q2
1000
20
1002
}
1000
FCO361AQ2
1000
E30F
1000
B.U.E.: BANCHI CHECK-IN/GATE
1010
1.596589894790668
1020
-2.0633679257007311
1030
0.0
1040
0.2
1040
0.0
1070
     4
1002
{
1005
0
1005
0
1005
0
1005
0
1005
0
1005
0
1002
}
  0
VERTEX
  5
CA
  8
RM$
  6
CONTINUOUS
 10
12.254267381693101
 20
41.79626172330569
 30
0.0
  0
VERTEX
  5
CB
  8
RM$
  6
CONTINUOUS
 10
12.25425334451274
 20
41.79624499643834
 30
0.0
  0
VERTEX
  5
CC
  8
RM$
  6
CONTINUOUS
 10
12.25430070086256
 20
41.796222764933617
 30
0.0
  0
VERTEX
  5
CD
  8
RM$
  6
CONTINUOUS
 10
12.254314729673069
 20
41.796239495728493
 30
0.0
  0
SEQEND
  5
CE
  8
RM$
  6
CONTINUOUS
  0
POLYLINE
  5
CF
  8
RM$
  6
CONTINUOUS
 66
     1
 10
0.0
 20
0.0
 30
0.0
 70
     1
1001
AFM10
1070
     3
1000
rm
1002
{
1000
FCO361A
1000
Q2
1000
21
1002
}
1000
FCO361AQ2
1000
E3ED
1000
STAFF AREE TECNICHE
1010
-2.6108971692738119
1020
-1.85216154018417
1030
0.0
1040
0.2
1040
0.0
1070
     4
1002
{
1005
0
1005
0
1005
0
1005
0
1005
0
1005
0
1002
}
  0
VERTEX
  5
D0
  8
RM$
  6
CONTINUOUS
 10
12.253452302200451
 20
41.796405975008838
 30
0.0
  0
VERTEX
  5
D1
  8
RM$
  6
CONTINUOUS
 10
12.253420294051461
 20
41.796420932359737
 30
0.0
  0
VERTEX
  5
D2
  8
RM$
  6
CONTINUOUS
 10
12.253409003387439
 20
41.796407454321987
 30
0.0
  0
VERTEX
  5
D3
  8
RM$
  6
CONTINUOUS
 10
12.253411538068409
 20
41.79640626532823
 30
0.0
  0
VERTEX
  5
D4
  8
RM$
  6
CONTINUOUS
 10
12.25340994084911
 20
41.796404358674479
 30
0.0
  0
VERTEX
  5
D5
  8
RM$
  6
CONTINUOUS
 10
12.253438701535851
 20
41.796390867234209
 30
0.0
  0
VERTEX
  5
D6
  8
RM$
 10
12.25344188266439
 20
41.796394679252401
 30
0.0
  0
VERTEX
  5
D7
  8
RM$
 10
12.253442457711801
 20
41.796394411567597
 30
0.0
  0
SEQEND
  5
D8
  8
RM$
  6
CONTINUOUS
  0
POLYLINE
  5
D9
  8
RM$
  6
CONTINUOUS
 66
     1
 10
0.0
 20
0.0
 30
0.0
 70
     1
1001
AFM10
1070
     3
1000
rm
1002
{
1000
FCO361A
1000
Q2
1000
22
1002
}
1000
FCO361AQ2
1000
E436
1000
DIRITTI: IMBARCO PAX
1010
37.543865014973562
1020
-11.391596079571171
1030
0.0
1040
0.2
1040
0.0
1070
     4
1002
{
1005
0
1005
0
1005
0
1005
0
1005
0
1005
0
1002
}
  0
VERTEX
  5
DA
  8
RM$
  6
CONTINUOUS
 10
12.25366301502023
 20
41.796745355579517
 30
0.0
  0
VERTEX
  5
DB
  8
RM$
  6
CONTINUOUS
 10
12.25358331118607
 20
41.796650282195763
 30
0.0
  0
VERTEX
  5
DC
  8
RM$
 10
12.253600519897541
 20
41.79664219719934
 30
0.0
  0
VERTEX
  5
DD
  8
RM$
 10
12.25361304878624
 20
41.796657142091043
 30
0.0
  0
VERTEX
  5
DE
  8
RM$
  6
CONTINUOUS
 10
12.25364464666818
 20
41.79664230877539
 30
0.0
  0
VERTEX
  5
DF
  8
RM$
  6
CONTINUOUS
 10
12.253592838341939
 20
41.796580509939972
 30
0.0
  0
VERTEX
  5
E0
  8
RM$
  6
CONTINUOUS
 10
12.253875126017171
 20
41.796447992092979
 30
0.0
  0
VERTEX
  5
E1
  8
RM$
  6
CONTINUOUS
 10
12.25391370045979
 20
41.796494318500997
 30
0.0
  0
VERTEX
  5
E2
  8
RM$
  6
CONTINUOUS
 10
12.253914081880049
 20
41.79649482313215
 30
0.0
  0
VERTEX
  5
E3
  8
RM$
  6
CONTINUOUS
 10
12.254068202073009
 20
41.796422948618677
 30
0.0
  0
VERTEX
  5
E4
  8
RM$
  6
CONTINUOUS
 10
12.254028926822521
 20
41.7963757909165
 30
0.0
  0
VERTEX
  5
E5
  8
RM$
  6
CONTINUOUS
 10
12.254317031549769
 20
41.796240540284792
 30
0.0
  0
VERTEX
  5
E6
  8
RM$
  6
CONTINUOUS
 10
12.25434532415272
 20
41.796227261550357
 30
0.0
  0
VERTEX
  5
E7
  8
RM$
  6
CONTINUOUS
 10
12.254442565069439
 20
41.796343497212639
 30
0.0
  0
VERTEX
  5
E8
  8
RM$
  6
CONTINUOUS
 10
12.254456167694491
 20
41.796337111550613
 30
0.0
  0
VERTEX
  5
E9
  8
RM$
  6
CONTINUOUS
 10
12.254456167694491
 20
41.796337111550613
 30
0.0
  0
VERTEX
  5
EA
  8
RM$
 10
12.254458013366349
 20
41.796339311311613
 30
0.0
  0
VERTEX
  5
EB
  8
RM$
 10
12.254460052074061
 20
41.796338349034848
 30
0.0
  0
VERTEX
  5
EC
  8
RM$
  6
CONTINUOUS
 10
12.254479807497869
 20
41.796361915344143
 30
0.0
  0
SEQEND
  5
ED
  8
RM$
  6
CONTINUOUS
  0
POLYLINE
  5
EE
  8
RM$
  6
CONTINUOUS
 66
     1
 10
0.0
 20
0.0
 30
0.0
 70
     1
1001
AFM10
1070
     3
1000
rm
1002
{
1000
FCO361A
1000
Q2
1000
23
1002
}
1000
FCO361AQ2
1000
E46A
1000
ALTRE SUBCONCESSIONI NON RETAIL
1010
1.7501141478423961
1020
-2.2820464601973072
1030
0.0
1040
0.2
1040
0.0
1070
     4
1002
{
1005
0
1005
0
1005
0
1005
0
1005
0
1005
0
1002
}
  0
VERTEX
  5
3CD
  8
RM$
  6
CONTINUOUS
 10
12.254125244140139
 20
41.79615267156786
 30
0.0
  0
VERTEX
  5
3CE
  8
RM$
  6
CONTINUOUS
 10
12.254106973159111
 20
41.796130815413612
 30
0.0
  0
VERTEX
  5
3CF
  8
RM$
  6
CONTINUOUS
 10
12.254157288451751
 20
41.79610721804336
 30
0.0
  0
VERTEX
  5
3D0
  8
RM$
  6
CONTINUOUS
 10
12.25417557171337
 20
41.796129045257928
 30
0.0
  0
VERTEX
  5
3D1
  8
RM$
  6
CONTINUOUS
 10
12.25415235702469
 20
41.79613994341269
 30
0.0
  0
SEQEND
  5
3D2
  8
RM$
  6
CONTINUOUS
  0
POLYLINE
  5
EF
  8
RM$
  6
CONTINUOUS
 66
     1
 10
0.0
 20
0.0
 30
0.0
 70
     1
1001
AFM10
1070
     3
1000
rm
1002
{
1000
FCO361A
1000
Q2
1000
24
1002
}
1000
FCO361AQ2
1000
E473
1000
DIRITTI: IMBARCO PAX
1010
6.5244384428369813
1020
-4.8213910007616496
1030
0.0
1040
0.2
1040
0.0
1070
     4
1002
{
1005
0
1005
0
1005
0
1005
0
1005
0
1005
0
1002
}
  0
VERTEX
  5
3D3
  8
RM$
  6
CONTINUOUS
 10
12.253634992282651
 20
41.796537268062032
 30
0.0
  0
VERTEX
  5
3D4
  8
RM$
  6
CONTINUOUS
 10
12.253683697081041
 20
41.796514404005819
 30
0.0
  0
VERTEX
  5
3D5
  8
RM$
  6
CONTINUOUS
 10
12.253676999092709
 20
41.79650641441296
 30
0.0
  0
VERTEX
  5
3D6
  8
RM$
  6
CONTINUOUS
 10
12.253678019226751
 20
41.796505935519271
 30
0.0
  0
VERTEX
  5
3D7
  8
RM$
  6
CONTINUOUS
 10
12.25368403434374
 20
41.796513110559459
 30
0.0
  0
VERTEX
  5
3D8
  8
RM$
  6
CONTINUOUS
 10
12.253706551011639
 20
41.796502540286788
 30
0.0
  0
VERTEX
  5
3D9
  8
RM$
  6
CONTINUOUS
 10
12.25370053589301
 20
41.796495365247722
 30
0.0
  0
VERTEX
  5
3DA
  8
RM$
  6
CONTINUOUS
 10
12.253701556026691
 20
41.796494886353798
 30
0.0
  0
VERTEX
  5
3DB
  8
RM$
  6
CONTINUOUS
 10
12.25370825401704
 20
41.796502875945322
 30
0.0
  0
VERTEX
  5
3DC
  8
RM$
  6
CONTINUOUS
 10
12.253744355865059
 20
41.796485928199807
 30
0.0
  0
VERTEX
  5
3DD
  8
RM$
  6
CONTINUOUS
 10
12.25373765746814
 20
41.796477938799818
 30
0.0
  0
VERTEX
  5
3DE
  8
RM$
  6
CONTINUOUS
 10
12.253738677601291
 20
41.796477459905553
 30
0.0
  0
VERTEX
  5
3DF
  8
RM$
  6
CONTINUOUS
 10
12.25374469158192
 20
41.796484635478258
 30
0.0
  0
VERTEX
  5
3E0
  8
RM$
  6
CONTINUOUS
 10
12.253767208458321
 20
41.796474062164528
 30
0.0
  0
VERTEX
  5
3E1
  8
RM$
  6
CONTINUOUS
 10
12.25376117650606
 20
41.796466868950212
 30
0.0
  0
VERTEX
  5
3E2
  8
RM$
  6
CONTINUOUS
 10
12.253762197779681
 20
41.79646638952017
 30
0.0
  0
VERTEX
  5
3E3
  8
RM$
  6
CONTINUOUS
 10
12.253768912082061
 20
41.796474400456297
 30
0.0
  0
VERTEX
  5
3E4
  8
RM$
  6
CONTINUOUS
 10
12.25379280936564
 20
41.796463182035623
 30
0.0
  0
VERTEX
  5
3E5
  8
RM$
  6
CONTINUOUS
 10
12.25374033485288
 20
41.796400591711453
 30
0.0
  0
VERTEX
  5
3E6
  8
RM$
  6
CONTINUOUS
 10
12.25361612306474
 20
41.796458902010571
 30
0.0
  0
VERTEX
  5
3E7
  8
RM$
  6
CONTINUOUS
 10
12.25363131103
 20
41.796477025187031
 30
0.0
  0
VERTEX
  5
3E8
  8
RM$
  6
CONTINUOUS
 10
12.2535977114369
 20
41.796492798225181
 30
0.0
  0
SEQEND
  5
3E9
  8
RM$
  6
CONTINUOUS
  0
POLYLINE
  5
F0
  8
RM$
  6
CONTINUOUS
 66
     1
 10
0.0
 20
0.0
 30
0.0
 70
     1
1001
AFM10
1070
     3
1000
rm
1002
{
1000
FCO361A
1000
Q2
1000
25
1002
}
1000
FCO361AQ2
1000
E474
1000
DIRITTI: IMBARCO PAX
1010
3.5369835257879449
1020
-4.8933150612283489
1030
0.0
1040
0.2
1040
0.0
1070
     4
1002
{
1005
0
1005
0
1005
0
1005
0
1005
0
1005
0
1002
}
  0
VERTEX
  5
3EA
  8
RM$
  6
CONTINUOUS
 10
12.2540460547179
 20
41.796343210279922
 30
0.0
  0
VERTEX
  5
3EB
  8
RM$
  6
CONTINUOUS
 10
12.25408212123282
 20
41.796326230611193
 30
0.0
  0
VERTEX
  5
3EC
  8
RM$
  6
CONTINUOUS
 10
12.254076106086631
 20
41.796319055590871
 30
0.0
  0
VERTEX
  5
3ED
  8
RM$
  6
CONTINUOUS
 10
12.254077126214851
 20
41.79631857669343
 30
0.0
  0
VERTEX
  5
3EE
  8
RM$
  6
CONTINUOUS
 10
12.2540831413611
 20
41.796325751713717
 30
0.0
  0
VERTEX
  5
3EF
  8
RM$
  6
CONTINUOUS
 10
12.254105657900229
 20
41.79631518135848
 30
0.0
  0
VERTEX
  5
3F0
  8
RM$
  6
CONTINUOUS
 10
12.25409964275231
 20
41.796308006339324
 30
0.0
  0
VERTEX
  5
3F1
  8
RM$
  6
CONTINUOUS
 10
12.25410066288017
 20
41.796307527441691
 30
0.0
  0
VERTEX
  5
3F2
  8
RM$
  6
CONTINUOUS
 10
12.25410667802816
 20
41.796314702460791
 30
0.0
  0
VERTEX
  5
3F3
  8
RM$
  6
CONTINUOUS
 10
12.254143011227161
 20
41.796297711253523
 30
0.0
  0
VERTEX
  5
3F4
  8
RM$
  6
CONTINUOUS
 10
12.25409118102108
 20
41.796235888263674
 30
0.0
  0
VERTEX
  5
3F5
  8
RM$
  6
CONTINUOUS
 10
12.253994233760549
 20
41.796281399995713
 30
0.0
  0
SEQEND
  5
3F6
  8
RM$
  6
CONTINUOUS
  0
POLYLINE
  5
F1
  8
RM$
  6
CONTINUOUS
 66
     1
 10
0.0
 20
0.0
 30
0.0
 70
     1
1001
AFM10
1070
     3
1000
rm
1002
{
1000
FCO361A
1000
Q2
1000
26
1002
}
1000
FCO361AQ2
1000
E478
1000
DIRITTI: IMBARCO PAX
1010
3.8860099492594591
1020
-4.8464340202044687
1030
0.0
1040
0.2
1040
0.0
1070
     4
1002
{
1005
0
1005
0
1005
0
1005
0
1005
0
1005
0
1002
}
  0
VERTEX
  5
F2
  8
RM$
  6
CONTINUOUS
 10
12.254204312459731
 20
41.796266879440843
 30
0.0
  0
VERTEX
  5
F3
  8
RM$
  6
CONTINUOUS
 10
12.25430001787662
 20
41.79622195043585
 30
0.0
  0
VERTEX
  5
F4
  8
RM$
  6
CONTINUOUS
 10
12.25424942326088
 20
41.79616160138302
 30
0.0
  0
VERTEX
  5
F5
  8
RM$
  6
CONTINUOUS
 10
12.25415371762964
 20
41.796206530476219
 30
0.0
  0
SEQEND
  5
F6
  8
RM$
  6
CONTINUOUS
  0
POLYLINE
  5
F7
  8
RM$
 66
     1
 10
0.0
 20
0.0
 30
0.0
 70
     1
1001
AFM10
1070
     3
1000
rm
1002
{
1000
FCO361A
1000
Q2
1000
28
1002
}
1000
FCO361AQ2
1000
11C61
1000
STAFF AREE TECNICHE
1010
-89.447332904557697
1020
8.0095273820916191
1030
0.0
1040
0.2
1040
0.0
1070
     4
1002
{
1005
0
1005
0
1005
0
1005
0
1005
0
1005
0
1002
}
  0
VERTEX
  5
3F7
  8
RM$
 10
12.25407640546517
 20
41.79612389863717
 30
0.0
  0
VERTEX
  5
3F8
  8
RM$
 10
12.254092708835209
 20
41.796116245020507
 30
0.0
  0
VERTEX
  5
3F9
  8
RM$
 10
12.25407322001336
 20
41.79609298838983
 30
0.0
  0
VERTEX
  5
3FA
  8
RM$
 10
12.25405690881472
 20
41.796100642455862
 30
0.0
  0
SEQEND
  5
3FB
  8
RM$
  0
POLYLINE
  5
F8
  8
RM$
 66
     1
 10
0.0
 20
0.0
 30
0.0
 70
     1
1001
AFM10
1070
     3
1000
rm
1002
{
1000
FCO361A
1000
Q2
1000
29
1002
}
1000
FCO361AQ2
1000
1A78F
1000
ALTRE SUBCONCESSIONI NON RETAIL
1010
0.5760835418477655
1020
-3.093578248051926
1030
0.0
1040
0.2032
1040
0.0
1070
     4
1002
{
1005
0
1005
0
1005
0
1005
0
1005
0
1005
0
1002
}
  0
VERTEX
  5
F9
  8
RM$
 10
12.253538719002471
 20
41.796559884506117
 30
0.0
  0
VERTEX
  5
FA
  8
RM$
 10
12.253513894312711
 20
41.796530278583873
 30
0.0
  0
VERTEX
  5
FB
  8
RM$
 10
12.25354254857549
 20
41.796516838950438
 30
0.0
  0
VERTEX
  5
FC
  8
RM$
 10
12.25356135549166
 20
41.796539272637823
 30
0.0
  0
VERTEX
  5
FD
  8
RM$
 10
12.25356710856882
 20
41.796546135148688
 30
0.0
  0
VERTEX
  5
FE
  8
RM$
 10
12.253567362532509
 20
41.796546438086118
 30
0.0
  0
SEQEND
  5
FF
  8
RM$
  0
POLYLINE
  5
100
  8
RM$
 66
     1
 10
0.0
 20
0.0
 30
0.0
 70
     1
1001
AFM10
1070
     3
1000
rm
1002
{
1000
FCO361A
1000
Q2
1000
30
1002
}
1000
FCO361AQ2
1000
1B524
1000
STAFF AREE TECNICHE
1010
-70.91336062544724
1020
-18.150193466222841
1030
0.0
1040
0.2032
1040
0.0
1070
     4
1002
{
1005
0
1005
0
1005
0
1005
0
1005
0
1005
0
1002
}
  0
VERTEX
  5
101
  8
RM$
 10
12.254001231434749
 20
41.796415906753509
 30
0.0
  0
VERTEX
  5
102
  8
RM$
 10
12.25401377164958
 20
41.796410019791182
 30
0.0
  0
VERTEX
  5
103
  8
RM$
 10
12.253970361110399
 20
41.796358237738943
 30
0.0
  0
VERTEX
  5
104
  8
RM$
 10
12.253969850707991
 20
41.796358475799693
 30
0.0
  0
VERTEX
  5
105
  8
RM$
 10
12.25396934030544
 20
41.796358713866219
 30
0.0
  0
VERTEX
  5
106
  8
RM$
 10
12.253961170546161
 20
41.796362524479449
 30
0.0
  0
VERTEX
  5
107
  8
RM$
 10
12.2539601493199
 20
41.796363000808981
 30
0.0
  0
VERTEX
  5
108
  8
RM$
 10
12.253957769998861
 20
41.796364110593217
 30
0.0
  0
VERTEX
  5
109
  8
RM$
 10
12.253992760622699
 20
41.796405821947417
 30
0.0
  0
VERTEX
  5
10A
  8
RM$
 10
12.253997887539221
 20
41.796411919316242
 30
0.0
  0
SEQEND
  5
10B
  8
RM$
  0
POLYLINE
  5
10C
  8
RM$
 66
     1
 10
0.0
 20
0.0
 30
0.0
 70
     1
1001
AFM10
1070
     3
1000
rm
1002
{
1000
FCO361A
1000
Q2
1000
31
1002
}
1000
FCO361AQ2
1000
1F54E
1000

1010
5.043350126594305
1020
-10.06887639604974
1030
0.0
1040
0.2032
1040
0.0
1070
     4
1002
{
1005
0
1005
0
1005
0
1005
0
1005
0
1005
0
1002
}
  0
VERTEX
  5
10D
  8
RM$
 10
12.25444867987536
 20
41.7963406266012
 30
0.0
  0
VERTEX
  5
10E
  8
RM$
 10
12.254456168690369
 20
41.796337110956877
 30
0.0
  0
VERTEX
  5
10F
  8
RM$
 10
12.254455454605219
 20
41.796336259875623
 30
0.0
  0
VERTEX
  5
110
  8
RM$
 10
12.254459531689889
 20
41.79633434431608
 30
0.0
  0
VERTEX
  5
111
  8
RM$
 10
12.25446024829631
 20
41.796335195774532
 30
0.0
  0
VERTEX
  5
112
  8
RM$
 10
12.254548897548769
 20
41.796293579071133
 30
0.0
  0
VERTEX
  5
113
  8
RM$
 10
12.25454818489038
 20
41.796292729691821
 30
0.0
  0
VERTEX
  5
114
  8
RM$
 10
12.25455226196938
 20
41.796290814128547
 30
0.0
  0
VERTEX
  5
115
  8
RM$
 10
12.25455297714511
 20
41.796291663885569
 30
0.0
  0
VERTEX
  5
116
  8
RM$
 10
12.254583384638909
 20
41.796277388951538
 30
0.0
  0
VERTEX
  5
117
  8
RM$
 10
12.254527397257659
 20
41.796210466769622
 30
0.0
  0
VERTEX
  5
118
  8
RM$
 10
12.254492827812671
 20
41.79622670586442
 30
0.0
  0
VERTEX
  5
119
  8
RM$
 10
12.254490267982201
 20
41.796223654932412
 30
0.0
  0
VERTEX
  5
11A
  8
RM$
 10
12.25449434505833
 20
41.796221739371077
 30
0.0
  0
VERTEX
  5
11B
  8
RM$
 10
12.25449684112691
 20
41.796224705138933
 30
0.0
  0
VERTEX
  5
11C
  8
RM$
 10
12.254527333380359
 20
41.796210390416462
 30
0.0
  0
VERTEX
  5
11D
  8
RM$
 10
12.25450486408214
 20
41.796183532632227
 30
0.0
  0
VERTEX
  5
11E
  8
RM$
 10
12.254470260859639
 20
41.796199787663291
 30
0.0
  0
VERTEX
  5
11F
  8
RM$
 10
12.25446770103151
 20
41.796196736731112
 30
0.0
  0
VERTEX
  5
120
  8
RM$
 10
12.254471778106531
 20
41.796194821170531
 30
0.0
  0
VERTEX
  5
121
  8
RM$
 10
12.25447427417304
 20
41.796197786938819
 30
0.0
  0
VERTEX
  5
122
  8
RM$
 10
12.25450480015809
 20
41.796183456382693
 30
0.0
  0
VERTEX
  5
123
  8
RM$
 10
12.254470331539441
 20
41.796142255476653
 30
0.0
  0
VERTEX
  5
124
  8
RM$
 10
12.254449611330839
 20
41.796151981464838
 30
0.0
  0
VERTEX
  5
125
  8
RM$
 10
12.254439433148571
 20
41.796139840752552
 30
0.0
  0
VERTEX
  5
126
  8
RM$
 10
12.25442546230463
 20
41.79614643687114
 30
0.0
  0
VERTEX
  5
127
  8
RM$
 10
12.25442290248043
 20
41.796143385937782
 30
0.0
  0
VERTEX
  5
128
  8
RM$
 10
12.254426979553211
 20
41.796141470378743
 30
0.0
  0
VERTEX
  5
129
  8
RM$
 10
12.254429475615771
 20
41.796144436147991
 30
0.0
  0
VERTEX
  5
12A
  8
RM$
 10
12.25443938080538
 20
41.796139778316657
 30
0.0
  0
VERTEX
  5
12B
  8
RM$
 10
12.25440111720757
 20
41.796094136786067
 30
0.0
  0
VERTEX
  5
12C
  8
RM$
 10
12.25439131019977
 20
41.796098731611259
 30
0.0
  0
VERTEX
  5
12D
  8
RM$
 10
12.25437184503622
 20
41.796107864393768
 30
0.0
  0
VERTEX
  5
12E
  8
RM$
 10
12.254352379662629
 20
41.796116997268811
 30
0.0
  0
VERTEX
  5
12F
  8
RM$
 10
12.254349422542679
 20
41.79611838217054
 30
0.0
  0
VERTEX
  5
130
  8
RM$
 10
12.25433772726303
 20
41.796123869306548
 30
0.0
  0
VERTEX
  5
131
  8
RM$
 10
12.25432855373689
 20
41.796128173297021
 30
0.0
  0
VERTEX
  5
132
  8
RM$
 10
12.254309675575859
 20
41.796137028548223
 30
0.0
  0
VERTEX
  5
133
  8
RM$
 10
12.254306719806969
 20
41.79613841472159
 30
0.0
  0
VERTEX
  5
134
  8
RM$
 10
12.25428981431981
 20
41.796146334364963
 30
0.0
  0
VERTEX
  5
135
  8
RM$
 10
12.25428716747064
 20
41.796147574323101
 30
0.0
  0
VERTEX
  5
136
  8
RM$
 10
12.254323586856479
 20
41.796191106145429
 30
0.0
  0
VERTEX
  5
137
  8
RM$
 10
12.254324507698129
 20
41.796190673854191
 30
0.0
  0
VERTEX
  5
138
  8
RM$
 10
12.254325163238001
 20
41.796188534955078
 30
0.0
  0
VERTEX
  5
139
  8
RM$
 10
12.25432778058414
 20
41.796187307150191
 30
0.0
  0
VERTEX
  5
13A
  8
RM$
 10
12.254330631237281
 20
41.79618779638735
 30
0.0
  0
VERTEX
  5
13B
  8
RM$
 10
12.254358289749099
 20
41.796174884937173
 30
0.0
  0
VERTEX
  5
13C
  8
RM$
 10
12.254358980297701
 20
41.79617263180662
 30
0.0
  0
VERTEX
  5
13D
  8
RM$
 10
12.254361597642569
 20
41.796171404000887
 30
0.0
  0
VERTEX
  5
13E
  8
RM$
 10
12.25436460858872
 20
41.796171920747192
 30
0.0
  0
VERTEX
  5
13F
  8
RM$
 10
12.254366249353319
 20
41.796173879340571
 30
0.0
  0
VERTEX
  5
140
  8
RM$
 10
12.25436555880497
 20
41.79617613247116
 30
0.0
  0
VERTEX
  5
141
  8
RM$
 10
12.25436294145997
 20
41.796177360276957
 30
0.0
  0
VERTEX
  5
142
  8
RM$
 10
12.25435993051358
 20
41.796176843530603
 30
0.0
  0
VERTEX
  5
143
  8
RM$
 10
12.2543583535866
 20
41.796174961140501
 30
0.0
  0
VERTEX
  5
144
  8
RM$
 10
12.25433082056845
 20
41.796187858559968
 30
0.0
  0
VERTEX
  5
145
  8
RM$
 10
12.254331104336901
 20
41.796188197296793
 30
0.0
  0
VERTEX
  5
146
  8
RM$
 10
12.25433136251776
 20
41.796188505489489
 30
0.0
  0
VERTEX
  5
147
  8
RM$
 10
12.25433161191266
 20
41.796188803194298
 30
0.0
  0
VERTEX
  5
148
  8
RM$
 10
12.254332432294641
 20
41.79618978249119
 30
0.0
  0
VERTEX
  5
149
  8
RM$
 10
12.25433174174489
 20
41.796192035621537
 30
0.0
  0
VERTEX
  5
14A
  8
RM$
 10
12.25432912439863
 20
41.796193263426538
 30
0.0
  0
VERTEX
  5
14B
  8
RM$
 10
12.254326113451819
 20
41.796192746679303
 30
0.0
  0
VERTEX
  5
14C
  8
RM$
 10
12.254324472688021
 20
41.796190788085383
 30
0.0
  0
VERTEX
  5
14D
  8
RM$
 10
12.254324482713679
 20
41.796190755373651
 30
0.0
  0
VERTEX
  5
14E
  8
RM$
 10
12.254323628272489
 20
41.796191155649652
 30
0.0
  0
VERTEX
  5
14F
  8
RM$
 10
12.254368264385249
 20
41.79624450877175
 30
0.0
  0
VERTEX
  5
150
  8
RM$
 10
12.25437115904167
 20
41.796243149937723
 30
0.0
  0
VERTEX
  5
151
  8
RM$
 10
12.254373192641349
 20
41.796242191528762
 30
0.0
  0
VERTEX
  5
152
  8
RM$
 10
12.254402948692739
 20
41.796228194621321
 30
0.0
  0
VERTEX
  5
153
  8
RM$
 10
12.25440363924082
 20
41.796225941489297
 30
0.0
  0
VERTEX
  5
154
  8
RM$
 10
12.254406256587121
 20
41.796224713682633
 30
0.0
  0
VERTEX
  5
155
  8
RM$
 10
12.25440926753617
 20
41.796225230427829
 30
0.0
  0
VERTEX
  5
156
  8
RM$
 10
12.25441090830321
 20
41.79622718902035
 30
0.0
  0
VERTEX
  5
157
  8
RM$
 10
12.254410217756091
 20
41.796229442151059
 30
0.0
  0
VERTEX
  5
158
  8
RM$
 10
12.254407600409539
 20
41.796230669958277
 30
0.0
  0
VERTEX
  5
159
  8
RM$
 10
12.254404589460259
 20
41.796230153213031
 30
0.0
  0
VERTEX
  5
15A
  8
RM$
 10
12.25440301258454
 20
41.796228270887717
 30
0.0
  0
VERTEX
  5
15B
  8
RM$
 10
12.254372365553669
 20
41.79624273341279
 30
0.0
  0
VERTEX
  5
15C
  8
RM$
 10
12.254372917025741
 20
41.796243383598529
 30
0.0
  0
VERTEX
  5
15D
  8
RM$
 10
12.25437346147184
 20
41.796244025500691
 30
0.0
  0
VERTEX
  5
15E
  8
RM$
 10
12.254373921507829
 20
41.796243813774922
 30
0.0
  0
VERTEX
  5
15F
  8
RM$
 10
12.25437438047555
 20
41.796243602556508
 30
0.0
  0
VERTEX
  5
160
  8
RM$
 10
12.25437442659744
 20
41.796243657527782
 30
0.0
  0
VERTEX
  5
161
  8
RM$
 10
12.254374472719331
 20
41.79624371249902
 30
0.0
  0
VERTEX
  5
162
  8
RM$
 10
12.254373454213971
 20
41.796244189558017
 30
0.0
  0
VERTEX
  5
163
  8
RM$
 10
12.25437243548693
 20
41.796244666741948
 30
0.0
  0
VERTEX
  5
164
  8
RM$
 10
12.25437233520908
 20
41.796244551748728
 30
0.0
  0
VERTEX
  5
165
  8
RM$
 10
12.254373253440679
 20
41.796244120278217
 30
0.0
  0
VERTEX
  5
166
  8
RM$
 10
12.25437216955145
 20
41.796242828449529
 30
0.0
  0
VERTEX
  5
167
  8
RM$
 10
12.254371251285439
 20
41.796243259880242
 30
0.0
  0
VERTEX
  5
168
  8
RM$
 10
12.25437122300203
 20
41.796243226170098
 30
0.0
  0
VERTEX
  5
169
  8
RM$
 10
12.25437122300203
 20
41.796243226170098
 30
0.0
  0
VERTEX
  5
16A
  8
RM$
 10
12.254368327984279
 20
41.796244584790998
 30
0.0
  0
VERTEX
  5
16B
  8
RM$
 10
12.254391351353441
 20
41.796272104365578
 30
0.0
  0
VERTEX
  5
16C
  8
RM$
 10
12.254398815411379
 20
41.796268597506611
 30
0.0
  0
VERTEX
  5
16D
  8
RM$
 10
12.25439760563539
 20
41.796267155579748
 30
0.0
  0
VERTEX
  5
16E
  8
RM$
 10
12.254401683756729
 20
41.796265239534179
 30
0.0
  0
VERTEX
  5
16F
  8
RM$
 10
12.254404243925199
 20
41.796268281469338
 30
0.0
  0
VERTEX
  5
170
  8
RM$
 10
12.25440016650251
 20
41.79627020602571
 30
0.0
  0
VERTEX
  5
171
  8
RM$
 10
12.254398882680031
 20
41.79626867768085
 30
0.0
  0
VERTEX
  5
172
  8
RM$
 10
12.254391415181839
 20
41.79627218065891
 30
0.0
  0
SEQEND
  5
173
  8
RM$
  0
POLYLINE
  5
174
  8
RM$
 66
     1
 10
0.0
 20
0.0
 30
0.0
 70
     1
1001
AFM10
1070
     3
1000
rm
1002
{
1000
FCO361A
1000
Q2
1000
32
1002
}
1000
FCO361AQ2
1000
1F61B
1000
NON OPERATIVO
1010
1.555259766406379
1020
-5.651202792301774
1030
0.0
1040
0.2032
1040
0.0
1070
     4
1002
{
1005
0
1005
0
1005
0
1005
0
1005
0
1005
0
1002
}
  0
VERTEX
  5
175
  8
RM$
 10
12.25424688970393
 20
41.796099436878293
 30
0.0
  0
VERTEX
  5
176
  8
RM$
 10
12.254258718606691
 20
41.796093883773771
 30
0.0
  0
VERTEX
  5
177
  8
RM$
 10
12.254258718606691
 20
41.796093883773771
 30
0.0
  0
VERTEX
  5
178
  8
RM$
 10
12.25426346736845
 20
41.796091654908693
 30
0.0
  0
VERTEX
  5
179
  8
RM$
 10
12.25426580925957
 20
41.796090555050057
 30
0.0
  0
VERTEX
  5
17A
  8
RM$
 10
12.25426740376108
 20
41.796089806507439
 30
0.0
  0
VERTEX
  5
17B
  8
RM$
 10
12.25426740376108
 20
41.796089806507439
 30
0.0
  0
VERTEX
  5
17C
  8
RM$
 10
12.25427033704405
 20
41.79608842992279
 30
0.0
  0
VERTEX
  5
17D
  8
RM$
 10
12.25427033704405
 20
41.79608842992279
 30
0.0
  0
VERTEX
  5
17E
  8
RM$
 10
12.25427033704405
 20
41.79608842992279
 30
0.0
  0
VERTEX
  5
17F
  8
RM$
 10
12.25427256781165
 20
41.796087382683332
 30
0.0
  0
VERTEX
  5
180
  8
RM$
 10
12.254271161251429
 20
41.796085704904989
 30
0.0
  0
VERTEX
  5
181
  8
RM$
 10
12.254274220207339
 20
41.796084272318851
 30
0.0
  0
VERTEX
  5
182
  8
RM$
 10
12.25427575162386
 20
41.796086103544802
 30
0.0
  0
VERTEX
  5
183
  8
RM$
 10
12.254299012239541
 20
41.796075183784652
 30
0.0
  0
VERTEX
  5
184
  8
RM$
 10
12.254259651448271
 20
41.796028233286229
 30
0.0
  0
VERTEX
  5
185
  8
RM$
 10
12.254249461928771
 20
41.796033016784271
 30
0.0
  0
VERTEX
  5
186
  8
RM$
 10
12.254235765116549
 20
41.796016678544369
 30
0.0
  0
VERTEX
  5
187
  8
RM$
 10
12.25419397305949
 20
41.79603629752453
 30
0.0
  0
VERTEX
  5
188
  8
RM$
 10
12.254240073532671
 20
41.796091287356766
 30
0.0
  0
SEQEND
  5
189
  8
RM$
  0
POLYLINE
  5
18A
  8
RM$
 66
     1
 10
0.0
 20
0.0
 30
0.0
 70
     1
1001
AFM10
1070
     3
1000
rm
1002
{
1000
FCO361A
1000
Q2
1000
33
1002
}
1000
FCO361AQ2
1000
3DB15
1000
RETAIL: SUBCONCESSIONI
1010
1.987380617123562
1020
3.7951870199758551
1030
0.0
1040
0.2032
1040
0.0
1070
     4
1002
{
1005
0
1005
0
1005
0
1005
0
1005
0
1005
0
1002
}
  0
VERTEX
  5
18B
  8
RM$
 10
12.25377054400429
 20
41.796256289169939
 30
0.0
  0
VERTEX
  5
18C
  8
RM$
 10
12.25376952504528
 20
41.796256767515217
 30
0.0
  0
VERTEX
  5
18D
  8
RM$
 10
12.253801208291231
 20
41.796294560414623
 30
0.0
  0
VERTEX
  5
18E
  8
RM$
 10
12.253805679896599
 20
41.796299894299942
 30
0.0
  0
VERTEX
  5
18F
  8
RM$
 10
12.25381165047926
 20
41.796307016215572
 30
0.0
  0
VERTEX
  5
190
  8
RM$
 10
12.253857648511771
 20
41.796285422644978
 30
0.0
  0
VERTEX
  5
191
  8
RM$
 10
12.25387152708155
 20
41.79627890740587
 30
0.0
  0
VERTEX
  5
192
  8
RM$
 10
12.253912325829109
 20
41.796259754579133
 30
0.0
  0
VERTEX
  5
193
  8
RM$
 10
12.2539292281208
 20
41.79625181985076
 30
0.0
  0
VERTEX
  5
194
  8
RM$
 10
12.253922119664701
 20
41.796243340659572
 30
0.0
  0
VERTEX
  5
195
  8
RM$
 10
12.25391335870275
 20
41.796232890303621
 30
0.0
  0
VERTEX
  5
196
  8
RM$
 10
12.253896280167741
 20
41.79621251846887
 30
0.0
  0
VERTEX
  5
197
  8
RM$
 10
12.253887763715049
 20
41.79620235976018
 30
0.0
  0
VERTEX
  5
198
  8
RM$
 10
12.253887102073151
 20
41.796201576743648
 30
0.0
  0
VERTEX
  5
199
  8
RM$
 10
12.253864940301479
 20
41.796211975222477
 30
0.0
  0
VERTEX
  5
19A
  8
RM$
 10
12.25387005416783
 20
41.796218075215052
 30
0.0
  0
VERTEX
  5
19B
  8
RM$
 10
12.253869289948851
 20
41.796218433975021
 30
0.0
  0
VERTEX
  5
19C
  8
RM$
 10
12.25387379654194
 20
41.796223809591289
 30
0.0
  0
VERTEX
  5
19D
  8
RM$
 10
12.25387838185164
 20
41.796221657033144
 30
0.0
  0
VERTEX
  5
19E
  8
RM$
 10
12.253891454173541
 20
41.796237250132499
 30
0.0
  0
VERTEX
  5
19F
  8
RM$
 10
12.25388228355237
 20
41.796241555249573
 30
0.0
  0
VERTEX
  5
1A0
  8
RM$
 10
12.253851714562559
 20
41.796255905748751
 30
0.0
  0
VERTEX
  5
1A1
  8
RM$
 10
12.253817807683051
 20
41.79627182319053
 30
0.0
  0
VERTEX
  5
1A2
  8
RM$
 10
12.2538136159407
 20
41.79627379098504
 30
0.0
  0
VERTEX
  5
1A3
  8
RM$
 10
12.253797320885569
 20
41.796254353672268
 30
0.0
  0
VERTEX
  5
1A4
  8
RM$
 10
12.25379603704295
 20
41.796252822257379
 30
0.0
  0
VERTEX
  5
1A5
  8
RM$
 10
12.25379527282162
 20
41.796253181015409
 30
0.0
  0
VERTEX
  5
1A6
  8
RM$
 10
12.253792012736181
 20
41.796249292269358
 30
0.0
  0
VERTEX
  5
1A7
  8
RM$
 10
12.253790158962961
 20
41.796247081022351
 30
0.0
  0
SEQEND
  5
1A8
  8
RM$
  0
POLYLINE
  5
1A9
  8
RM$
 66
     1
 10
0.0
 20
0.0
 30
0.0
 70
     1
1001
AFM10
1070
     3
1000
rm
1002
{
1000
FCO361A
1000
Q2
1000
34
1002
}
1000
FCO361AQ2
1000
3DB34
1000
RETAIL: SUBCONCESSIONI
1010
-62.166180754604277
1020
7.0631232713349164
1030
0.0
1040
0.2032
1040
0.0
1070
     4
1002
{
1005
0
1005
0
1005
0
1005
0
1005
0
1005
0
1002
}
  0
VERTEX
  5
1AA
  8
RM$
 10
12.25379168740033
 20
41.796246363503379
 30
0.0
  0
VERTEX
  5
1AB
  8
RM$
 10
12.253820034824921
 20
41.796233055928099
 30
0.0
  0
VERTEX
  5
1AC
  8
RM$
 10
12.25383005257698
 20
41.79622840626498
 30
0.0
  0
VERTEX
  5
1AD
  8
RM$
 10
12.25386494031315
 20
41.796211975236403
 30
0.0
  0
VERTEX
  5
1AE
  8
RM$
 10
12.253870054166971
 20
41.79621807521545
 30
0.0
  0
VERTEX
  5
1AF
  8
RM$
 10
12.253869289948801
 20
41.796218433974957
 30
0.0
  0
VERTEX
  5
1B0
  8
RM$
 10
12.25387379654193
 20
41.796223809591289
 30
0.0
  0
VERTEX
  5
1B1
  8
RM$
 10
12.25387838185164
 20
41.796221657033144
 30
0.0
  0
VERTEX
  5
1B2
  8
RM$
 10
12.253891454173541
 20
41.796237250132499
 30
0.0
  0
VERTEX
  5
1B3
  8
RM$
 10
12.25381361594077
 20
41.796273790985133
 30
0.0
  0
VERTEX
  5
1B4
  8
RM$
 10
12.253796037318629
 20
41.796252822127961
 30
0.0
  0
VERTEX
  5
1B5
  8
RM$
 10
12.25379527282314
 20
41.796253181017221
 30
0.0
  0
VERTEX
  5
1B6
  8
RM$
 10
12.253790158962961
 20
41.796247081022351
 30
0.0
  0
SEQEND
  5
1B7
  8
RM$
  0
POLYLINE
  5
1B8
  8
RM$
 66
     1
 10
0.0
 20
0.0
 30
0.0
 70
     1
1001
AFM10
1070
     3
1000
rm
1002
{
1000
FCO361A
1000
Q2
1000
35
1002
}
1000
FCO361AQ2
1000
3DB56
1000
RETAIL: SUBCONCESSIONI
1010
-66.961180739570409
1020
5.1631232714280477
1030
0.0
1040
0.2032
1040
0.0
1070
     4
1002
{
1005
0
1005
0
1005
0
1005
0
1005
0
1005
0
1002
}
  0
VERTEX
  5
1B9
  8
RM$
 10
12.25379914888882
 20
41.796241798157453
 30
0.0
  0
VERTEX
  5
1BA
  8
RM$
 10
12.25384041669821
 20
41.79622242515515
 30
0.0
  0
VERTEX
  5
1BB
  8
RM$
 10
12.253828293802689
 20
41.796207964540088
 30
0.0
  0
VERTEX
  5
1BC
  8
RM$
 10
12.253821589065129
 20
41.796211112052788
 30
0.0
  0
VERTEX
  5
1BD
  8
RM$
 10
12.25382344283916
 20
41.796213323300087
 30
0.0
  0
VERTEX
  5
1BE
  8
RM$
 10
12.25382033501741
 20
41.796214782254673
 30
0.0
  0
VERTEX
  5
1BF
  8
RM$
 10
12.253818481243449
 20
41.796212571007331
 30
0.0
  0
VERTEX
  5
1C0
  8
RM$
 10
12.253787025133869
 20
41.79622733650578
 30
0.0
  0
SEQEND
  5
1C1
  8
RM$
  0
POLYLINE
  5
1C2
  8
RM$
 66
     1
 10
0.0
 20
0.0
 30
0.0
 70
     1
1001
AFM10
1070
     3
1000
rm
1002
{
1000
FCO361A
1000
Q2
1000
36
1002
}
1000
FCO361AQ2
1000
3DB67
1000
RETAIL: SUBCONCESSIONI
1010
-65.255180739681236
1020
5.1631232713116333
1030
0.0
1040
0.2032
1040
0.0
1070
     4
1002
{
1005
0
1005
0
1005
0
1005
0
1005
0
1005
0
1002
}
  0
VERTEX
  5
1C3
  8
RM$
 10
12.253863282110981
 20
41.796211691070113
 30
0.0
  0
VERTEX
  5
1C4
  8
RM$
 10
12.253870720501221
 20
41.796208199142981
 30
0.0
  0
VERTEX
  5
1C5
  8
RM$
 10
12.253870720501221
 20
41.796208199142981
 30
0.0
  0
VERTEX
  5
1C6
  8
RM$
 10
12.253871739458731
 20
41.796207720796779
 30
0.0
  0
VERTEX
  5
1C7
  8
RM$
 10
12.253871739458731
 20
41.796207720796779
 30
0.0
  0
VERTEX
  5
1C8
  8
RM$
 10
12.253881929032961
 20
41.796202937334073
 30
0.0
  0
VERTEX
  5
1C9
  8
RM$
 10
12.253876486115811
 20
41.796196444838152
 30
0.0
  0
VERTEX
  5
1CA
  8
RM$
 10
12.25388102144329
 20
41.79619431575086
 30
0.0
  0
VERTEX
  5
1CB
  8
RM$
 10
12.253874341595781
 20
41.796186347579408
 30
0.0
  0
VERTEX
  5
1CC
  8
RM$
 10
12.253873116957511
 20
41.796186921155922
 30
0.0
  0
VERTEX
  5
1CD
  8
RM$
 10
12.25387503011429
 20
41.796189203242037
 30
0.0
  0
VERTEX
  5
1CE
  8
RM$
 10
12.253871718503399
 20
41.796190757867357
 30
0.0
  0
VERTEX
  5
1CF
  8
RM$
 10
12.25386980533523
 20
41.796188475764879
 30
0.0
  0
VERTEX
  5
1D0
  8
RM$
 10
12.25385859682528
 20
41.796193737563229
 30
0.0
  0
VERTEX
  5
1D1
  8
RM$
 10
12.25385859682528
 20
41.796193737563229
 30
0.0
  0
VERTEX
  5
1D2
  8
RM$
 10
12.253851158431161
 20
41.796197229480832
 30
0.0
  0
VERTEX
  5
1D3
  8
RM$
 10
12.253859121143639
 20
41.796206727725703
 30
0.0
  0
SEQEND
  5
1D4
  8
RM$
  0
POLYLINE
  5
1D5
  8
RM$
 66
     1
 10
0.0
 20
0.0
 30
0.0
 70
     1
1001
AFM10
1070
     3
1000
rm
1002
{
1000
FCO361A
1000
Q2
1000
37
1002
}
1000
FCO361AQ2
1000
3E08D
1000
RETAIL: SUBCONCESSIONI
1010
-68.105180739716161
1020
7.0031232712790361
1030
0.0
1040
0.2032
1040
0.0
1070
     0
1002
{
1005
0
1005
0
1005
0
1005
0
1005
0
1005
0
1002
}
  0
VERTEX
  5
1D6
  8
RM$
 10
12.253839440388671
 20
41.796202730456542
 30
0.0
  0
VERTEX
  5
1D7
  8
RM$
 10
12.25384280660904
 20
41.796206745814658
 30
0.0
  0
VERTEX
  5
1D8
  8
RM$
 10
12.253843825566729
 20
41.79620626746869
 30
0.0
  0
VERTEX
  5
1D9
  8
RM$
 10
12.25384045934722
 20
41.796202252111719
 30
0.0
  0
VERTEX
  5
1DA
  8
RM$
 10
12.253850139445021
 20
41.796197707838793
 30
0.0
  0
VERTEX
  5
1DB
  8
RM$
 10
12.25386226315336
 20
41.796212169416229
 30
0.0
  0
VERTEX
  5
1DC
  8
RM$
 10
12.25385258305514
 20
41.796216713704077
 30
0.0
  0
VERTEX
  5
1DD
  8
RM$
 10
12.253848428042041
 20
41.796211757461087
 30
0.0
  0
VERTEX
  5
1DE
  8
RM$
 10
12.25384740908431
 20
41.79621223580709
 30
0.0
  0
VERTEX
  5
1DF
  8
RM$
 10
12.253851564097349
 20
41.796217192050122
 30
0.0
  0
VERTEX
  5
1E0
  8
RM$
 10
12.25384143565616
 20
41.796221946809233
 30
0.0
  0
VERTEX
  5
1E1
  8
RM$
 10
12.253834979246109
 20
41.796214245378501
 30
0.0
  0
VERTEX
  5
1E2
  8
RM$
 10
12.253829311932931
 20
41.796207485207042
 30
0.0
  0
SEQEND
  5
1E3
  8
RM$
  0
POLYLINE
  5
1E4
  8
RM$
 66
     1
 10
0.0
 20
0.0
 30
0.0
1001
AFM10
1070
     3
1000
rm
1002
{
1000
FCO361A
1000
Q2
1000
39
1002
}
1000
FCO361AQ2
1000
411B3
1000
DIRITTI: IMBARCO PAX
1010
-0.4388738333364018
1020
-8.2112331172684208
1030
0.0
1040
0.2032
1040
0.0
1070
     4
1002
{
1005
0
1005
0
1005
0
1005
0
1005
0
1005
0
1002
}
  0
VERTEX
  5
1E5
  8
RM$
 10
12.253579773199959
 20
41.79648691728876
 30
0.0
  0
VERTEX
  5
1E6
  8
RM$
 10
12.253581359243791
 20
41.796488764686529
 30
0.0
  0
VERTEX
  5
1E7
  8
RM$
 10
12.253581726734041
 20
41.796488593275662
 30
0.0
  0
VERTEX
  5
1E8
  8
RM$
 10
12.25358156022506
 20
41.796488393378908
 30
0.0
  0
VERTEX
  5
1E9
  8
RM$
 10
12.253578701014639
 20
41.796484909786358
 30
0.0
  0
VERTEX
  5
1EA
  8
RM$
 10
12.25357826889751
 20
41.796485111341561
 30
0.0
  0
VERTEX
  5
1EB
  8
RM$
 10
12.253579505958861
 20
41.79648659646007
 30
0.0
  0
VERTEX
  5
1EC
  8
RM$
 10
12.25356523728329
 20
41.796493251789329
 30
0.0
  0
VERTEX
  5
1ED
  8
RM$
 10
12.25355824020299
 20
41.796484851513988
 30
0.0
  0
VERTEX
  5
1EE
  8
RM$
 10
12.2535582557325
 20
41.796484844270474
 30
0.0
  0
VERTEX
  5
1EF
  8
RM$
 10
12.25355825377901
 20
41.796484841925221
 30
0.0
  0
VERTEX
  5
1F0
  8
RM$
 10
12.25357250678789
 20
41.79647819380363
 30
0.0
  0
VERTEX
  5
1F1
  8
RM$
 10
12.25357383764063
 20
41.796479791521278
 30
0.0
  0
VERTEX
  5
1F2
  8
RM$
 10
12.25357387164374
 20
41.796479775661012
 30
0.0
  0
VERTEX
  5
1F3
  8
RM$
 10
12.253574239133441
 20
41.796479604250401
 30
0.0
  0
VERTEX
  5
1F4
  8
RM$
 10
12.25357411080231
 20
41.796479450186077
 30
0.0
  0
VERTEX
  5
1F5
  8
RM$
 10
12.2535741414267
 20
41.796479435902157
 30
0.0
  0
VERTEX
  5
1F6
  8
RM$
 10
12.253571226657989
 20
41.796475936658602
 30
0.0
  0
VERTEX
  5
1F7
  8
RM$
 10
12.25357082516496
 20
41.796476123929608
 30
0.0
  0
VERTEX
  5
1F8
  8
RM$
 10
12.253570927048949
 20
41.79647624624355
 30
0.0
  0
VERTEX
  5
1F9
  8
RM$
 10
12.25357089642481
 20
41.796476260527768
 30
0.0
  0
VERTEX
  5
1FA
  8
RM$
 10
12.253572239546671
 20
41.796477872974997
 30
0.0
  0
VERTEX
  5
1FB
  8
RM$
 10
12.25355797095138
 20
41.796484528266568
 30
0.0
  0
VERTEX
  5
1FC
  8
RM$
 10
12.253550971919459
 20
41.796476125645611
 30
0.0
  0
VERTEX
  5
1FD
  8
RM$
 10
12.253550987370151
 20
41.796476118438846
 30
0.0
  0
VERTEX
  5
1FE
  8
RM$
 10
12.25356524037775
 20
41.796469470318122
 30
0.0
  0
VERTEX
  5
1FF
  8
RM$
 10
12.253566829465241
 20
41.79647138368663
 30
0.0
  0
VERTEX
  5
200
  8
RM$
 10
12.25356726496236
 20
41.796471180554938
 30
0.0
  0
VERTEX
  5
201
  8
RM$
 10
12.25356687501669
 20
41.796470712416507
 30
0.0
  0
VERTEX
  5
202
  8
RM$
 10
12.25356416819373
 20
41.796467462815343
 30
0.0
  0
VERTEX
  5
203
  8
RM$
 10
12.253563736076689
 20
41.796467664370489
 30
0.0
  0
VERTEX
  5
204
  8
RM$
 10
12.25356497313679
 20
41.796469149489383
 30
0.0
  0
VERTEX
  5
205
  8
RM$
 10
12.253550704621389
 20
41.796475804743423
 30
0.0
  0
VERTEX
  5
206
  8
RM$
 10
12.25354370635706
 20
41.796467403041319
 30
0.0
  0
VERTEX
  5
207
  8
RM$
 10
12.253543705619229
 20
41.796467402155528
 30
0.0
  0
VERTEX
  5
208
  8
RM$
 10
12.253543720963799
 20
41.796467394951783
 30
0.0
  0
VERTEX
  5
209
  8
RM$
 10
12.253557448255449
 20
41.796460992043848
 30
0.0
  0
VERTEX
  5
20A
  8
RM$
 10
12.253557467344409
 20
41.79646101496057
 30
0.0
  0
VERTEX
  5
20B
  8
RM$
 10
12.253557962434609
 20
41.796460784032462
 30
0.0
  0
VERTEX
  5
20C
  8
RM$
 10
12.253559304822071
 20
41.796462344549759
 30
0.0
  0
VERTEX
  5
20D
  8
RM$
 10
12.25355970293527
 20
41.796462158855249
 30
0.0
  0
VERTEX
  5
20E
  8
RM$
 10
12.25355957460447
 20
41.796462004791209
 30
0.0
  0
VERTEX
  5
20F
  8
RM$
 10
12.25355960522861
 20
41.796461990506998
 30
0.0
  0
VERTEX
  5
210
  8
RM$
 10
12.25355697603289
 20
41.796458828464367
 30
0.0
  0
VERTEX
  5
211
  8
RM$
 10
12.25355654391589
 20
41.796459030019498
 30
0.0
  0
VERTEX
  5
212
  8
RM$
 10
12.25355770672917
 20
41.7964604260032
 30
0.0
  0
VERTEX
  5
213
  8
RM$
 10
12.253543438293359
 20
41.796467081219859
 30
0.0
  0
VERTEX
  5
214
  8
RM$
 10
12.253536439294029
 20
41.796458678632739
 30
0.0
  0
VERTEX
  5
215
  8
RM$
 10
12.25355070730261
 20
41.79645202303174
 30
0.0
  0
VERTEX
  5
216
  8
RM$
 10
12.253552112662531
 20
41.79645371019847
 30
0.0
  0
VERTEX
  5
217
  8
RM$
 10
12.25355251343291
 20
41.796453522060467
 30
0.0
  0
VERTEX
  5
218
  8
RM$
 10
12.25355238582447
 20
41.796453368863602
 30
0.0
  0
VERTEX
  5
219
  8
RM$
 10
12.253552416448599
 20
41.796453354579413
 30
0.0
  0
VERTEX
  5
21A
  8
RM$
 10
12.25355113968355
 20
41.796451821791749
 30
0.0
  0
VERTEX
  5
21B
  8
RM$
 10
12.25355195627167
 20
41.796451440905273
 30
0.0
  0
VERTEX
  5
21C
  8
RM$
 10
12.253551005590619
 20
41.796450299598412
 30
0.0
  0
VERTEX
  5
21D
  8
RM$
 10
12.253535488535389
 20
41.796457537207601
 30
0.0
  0
VERTEX
  5
21E
  8
RM$
 10
12.253503757851171
 20
41.796419443180199
 30
0.0
  0
VERTEX
  5
21F
  8
RM$
 10
12.25351335383221
 20
41.796414967267303
 30
0.0
  0
VERTEX
  5
220
  8
RM$
 10
12.253512399401851
 20
41.796413821449981
 30
0.0
  0
VERTEX
  5
221
  8
RM$
 10
12.253502797738051
 20
41.796418300013393
 30
0.0
  0
VERTEX
  5
222
  8
RM$
 10
12.253493253479689
 20
41.796406841889493
 30
0.0
  0
VERTEX
  5
223
  8
RM$
 10
12.25349432855548
 20
41.796406287203773
 30
0.0
  0
VERTEX
  5
224
  8
RM$
 10
12.25349423311059
 20
41.796406172622923
 30
0.0
  0
VERTEX
  5
225
  8
RM$
 10
12.253494555291629
 20
41.796406022341877
 30
0.0
  0
VERTEX
  5
226
  8
RM$
 10
12.25350369715099
 20
41.796401758129463
 30
0.0
  0
VERTEX
  5
227
  8
RM$
 10
12.2535037925959
 20
41.796401872710312
 30
0.0
  0
VERTEX
  5
228
  8
RM$
 10
12.25350423600332
 20
41.796401665883259
 30
0.0
  0
VERTEX
  5
229
  8
RM$
 10
12.25350426797243
 20
41.796401704262983
 30
0.0
  0
VERTEX
  5
22A
  8
RM$
 10
12.25352143373129
 20
41.796393697528337
 30
0.0
  0
VERTEX
  5
22B
  8
RM$
 10
12.25352206734085
 20
41.79639445819236
 30
0.0
  0
VERTEX
  5
22C
  8
RM$
 10
12.253523598546259
 20
41.796393743982193
 30
0.0
  0
VERTEX
  5
22D
  8
RM$
 10
12.25352351225469
 20
41.796393640387024
 30
0.0
  0
VERTEX
  5
22E
  8
RM$
 10
12.25352366537525
 20
41.79639356896601
 30
0.0
  0
VERTEX
  5
22F
  8
RM$
 10
12.25352321997449
 20
41.796393034251309
 30
0.0
  0
VERTEX
  5
230
  8
RM$
 10
12.253523066854081
 20
41.796393105672259
 30
0.0
  0
VERTEX
  5
231
  8
RM$
 10
12.253522964940091
 20
41.796392983321908
 30
0.0
  0
VERTEX
  5
232
  8
RM$
 10
12.25354307730073
 20
41.796383602264612
 30
0.0
  0
VERTEX
  5
233
  8
RM$
 10
12.25355580299509
 20
41.796398879767168
 30
0.0
  0
VERTEX
  5
234
  8
RM$
 10
12.253535690683011
 20
41.796408260888619
 30
0.0
  0
VERTEX
  5
235
  8
RM$
 10
12.253528971788141
 20
41.796400194691643
 30
0.0
  0
VERTEX
  5
236
  8
RM$
 10
12.25352892615722
 20
41.79640017819748
 30
0.0
  0
VERTEX
  5
237
  8
RM$
 10
12.253528903189119
 20
41.796400188910617
 30
0.0
  0
VERTEX
  5
238
  8
RM$
 10
12.253527417919621
 20
41.796400881694638
 30
0.0
  0
VERTEX
  5
239
  8
RM$
 10
12.25352750483918
 20
41.7964009849969
 30
0.0
  0
VERTEX
  5
23A
  8
RM$
 10
12.253527351090639
 20
41.796401056710828
 30
0.0
  0
VERTEX
  5
23B
  8
RM$
 10
12.25352762748261
 20
41.796401388526178
 30
0.0
  0
VERTEX
  5
23C
  8
RM$
 10
12.25352778060317
 20
41.796401317105172
 30
0.0
  0
VERTEX
  5
23D
  8
RM$
 10
12.25353429688924
 20
41.796409140065762
 30
0.0
  0
VERTEX
  5
23E
  8
RM$
 10
12.253534729822601
 20
41.796409659812753
 30
0.0
  0
VERTEX
  5
23F
  8
RM$
 10
12.25353511396648
 20
41.796410120986771
 30
0.0
  0
VERTEX
  5
240
  8
RM$
 10
12.25355275509818
 20
41.796401892515462
 30
0.0
  0
VERTEX
  5
241
  8
RM$
 10
12.25358130082299
 20
41.796436162729783
 30
0.0
  0
VERTEX
  5
242
  8
RM$
 10
12.25357517566918
 20
41.796439019797212
 30
0.0
  0
VERTEX
  5
243
  8
RM$
 10
12.253569785189599
 20
41.796441533844451
 30
0.0
  0
VERTEX
  5
244
  8
RM$
 10
12.253570739940001
 20
41.796442680086692
 30
0.0
  0
VERTEX
  5
245
  8
RM$
 10
12.25357155691901
 20
41.796442298443587
 30
0.0
  0
VERTEX
  5
246
  8
RM$
 10
12.253572834049701
 20
41.796443831667702
 30
0.0
  0
VERTEX
  5
247
  8
RM$
 10
12.253572864673901
 20
41.796443817383569
 30
0.0
  0
VERTEX
  5
248
  8
RM$
 10
12.25357299270404
 20
41.796443971086653
 30
0.0
  0
VERTEX
  5
249
  8
RM$
 10
12.25357339419671
 20
41.79644378381569
 30
0.0
  0
VERTEX
  5
24A
  8
RM$
 10
12.253571989045341
 20
41.796442096883979
 30
0.0
  0
VERTEX
  5
24B
  8
RM$
 10
12.25358625734723
 20
41.796435441621952
 30
0.0
  0
VERTEX
  5
24C
  8
RM$
 10
12.253593256577361
 20
41.796443844351707
 30
0.0
  0
VERTEX
  5
24D
  8
RM$
 10
12.253593241180891
 20
41.796443851533077
 30
0.0
  0
VERTEX
  5
24E
  8
RM$
 10
12.25357898818217
 20
41.796450499658
 30
0.0
  0
VERTEX
  5
24F
  8
RM$
 10
12.25357782545146
 20
41.796449103635837
 30
0.0
  0
VERTEX
  5
250
  8
RM$
 10
12.25357739325225
 20
41.796449305229423
 30
0.0
  0
VERTEX
  5
251
  8
RM$
 10
12.253580025827761
 20
41.796452465695467
 30
0.0
  0
VERTEX
  5
252
  8
RM$
 10
12.25358005645189
 20
41.796452451411263
 30
0.0
  0
VERTEX
  5
253
  8
RM$
 10
12.25358018478272
 20
41.79645260547526
 30
0.0
  0
VERTEX
  5
254
  8
RM$
 10
12.253580586275421
 20
41.796452418204296
 30
0.0
  0
VERTEX
  5
255
  8
RM$
 10
12.253579255423119
 20
41.79645082048669
 30
0.0
  0
VERTEX
  5
256
  8
RM$
 10
12.25359350842225
 20
41.796444172362179
 30
0.0
  0
VERTEX
  5
257
  8
RM$
 10
12.253593523815621
 20
41.796444165182137
 30
0.0
  0
VERTEX
  5
258
  8
RM$
 10
12.253600522906581
 20
41.79645256787429
 30
0.0
  0
VERTEX
  5
259
  8
RM$
 10
12.25358625459209
 20
41.796459223142712
 30
0.0
  0
VERTEX
  5
25A
  8
RM$
 10
12.253585029155101
 20
41.796457732602448
 30
0.0
  0
VERTEX
  5
25B
  8
RM$
 10
12.25358461941765
 20
41.796457923719061
 30
0.0
  0
VERTEX
  5
25C
  8
RM$
 10
12.25358458541441
 20
41.796457939579412
 30
0.0
  0
VERTEX
  5
25D
  8
RM$
 10
12.25358729215497
 20
41.796461189218448
 30
0.0
  0
VERTEX
  5
25E
  8
RM$
 10
12.25358732277936
 20
41.796461174934542
 30
0.0
  0
VERTEX
  5
25F
  8
RM$
 10
12.25358745111023
 20
41.796461328998532
 30
0.0
  0
VERTEX
  5
260
  8
RM$
 10
12.25358785260296
 20
41.796461141727548
 30
0.0
  0
VERTEX
  5
261
  8
RM$
 10
12.25358652175033
 20
41.796459544010027
 30
0.0
  0
VERTEX
  5
262
  8
RM$
 10
12.253600774750719
 20
41.796452895884649
 30
0.0
  0
VERTEX
  5
263
  8
RM$
 10
12.25360079106893
 20
41.796452889814027
 30
0.0
  0
VERTEX
  5
264
  8
RM$
 10
12.25360782509922
 20
41.796461306334812
 30
0.0
  0
VERTEX
  5
265
  8
RM$
 10
12.253593520859139
 20
41.7964679465911
 30
0.0
  0
VERTEX
  5
266
  8
RM$
 10
12.25359229001115
 20
41.796466468931712
 30
0.0
  0
VERTEX
  5
267
  8
RM$
 10
12.25359185736083
 20
41.79646667073574
 30
0.0
  0
VERTEX
  5
268
  8
RM$
 10
12.25359455797151
 20
41.796469912877512
 30
0.0
  0
VERTEX
  5
269
  8
RM$
 10
12.2535945885954
 20
41.796469898592989
 30
0.0
  0
VERTEX
  5
26A
  8
RM$
 10
12.25359471692656
 20
41.79647005265727
 30
0.0
  0
VERTEX
  5
26B
  8
RM$
 10
12.25359511841933
 20
41.796469865386271
 30
0.0
  0
VERTEX
  5
26C
  8
RM$
 10
12.253593787566331
 20
41.796468267668828
 30
0.0
  0
VERTEX
  5
26D
  8
RM$
 10
12.25360804056802
 20
41.796461619542569
 30
0.0
  0
VERTEX
  5
26E
  8
RM$
 10
12.25360805641351
 20
41.796461612151667
 30
0.0
  0
VERTEX
  5
26F
  8
RM$
 10
12.25361505550819
 20
41.796470014843031
 30
0.0
  0
VERTEX
  5
270
  8
RM$
 10
12.25360078897468
 20
41.79647666927454
 30
0.0
  0
VERTEX
  5
271
  8
RM$
 10
12.25359954967762
 20
41.796475185205672
 30
0.0
  0
VERTEX
  5
272
  8
RM$
 10
12.253599117560601
 20
41.796475386760939
 30
0.0
  0
VERTEX
  5
273
  8
RM$
 10
12.25360182438531
 20
41.796478636361087
 30
0.0
  0
VERTEX
  5
274
  8
RM$
 10
12.253601855009441
 20
41.796478622076883
 30
0.0
  0
VERTEX
  5
275
  8
RM$
 10
12.25360198334063
 20
41.796478776141171
 30
0.0
  0
VERTEX
  5
276
  8
RM$
 10
12.253602384833449
 20
41.796478588870137
 30
0.0
  0
VERTEX
  5
277
  8
RM$
 10
12.253601053980089
 20
41.796476991152751
 30
0.0
  0
VERTEX
  5
278
  8
RM$
 10
12.253615322136231
 20
41.79647033494053
 30
0.0
  0
VERTEX
  5
279
  8
RM$
 10
12.25362232184637
 20
41.796478738368158
 30
0.0
  0
VERTEX
  5
27A
  8
RM$
 10
12.253608053156119
 20
41.796485393809363
 30
0.0
  0
VERTEX
  5
27B
  8
RM$
 10
12.25360681647283
 20
41.796483909145373
 30
0.0
  0
VERTEX
  5
27C
  8
RM$
 10
12.25360638397585
 20
41.796484110244577
 30
0.0
  0
VERTEX
  5
27D
  8
RM$
 10
12.25360762103908
 20
41.796485595364572
 30
0.0
  0
VERTEX
  5
27E
  8
RM$
 10
12.25358720448838
 20
41.796495118387938
 30
0.0
  0
VERTEX
  5
27F
  8
RM$
 10
12.25358602585392
 20
41.796493703412352
 30
0.0
  0
VERTEX
  5
280
  8
RM$
 10
12.253585594662249
 20
41.796493906078616
 30
0.0
  0
VERTEX
  5
281
  8
RM$
 10
12.253586772371211
 20
41.79649531994307
 30
0.0
  0
VERTEX
  5
282
  8
RM$
 10
12.253572503673739
 20
41.79650197537962
 30
0.0
  0
VERTEX
  5
283
  8
RM$
 10
12.25356550248388
 20
41.796493570173219
 30
0.0
  0
VERTEX
  5
284
  8
RM$
 10
12.253565520189801
 20
41.796493565411211
 30
0.0
  0
VERTEX
  5
285
  8
RM$
 10
12.253579773199959
 20
41.79648691728876
 30
0.0
  0
SEQEND
  5
286
  8
RM$
  0
POLYLINE
  5
287
  8
RM$
 66
     1
 10
0.0
 20
0.0
 30
0.0
 70
     1
1001
AFM10
1070
     3
1000
rm
1002
{
1000
FCO361A
1000
Q2
1000
40
1002
}
1000
FCO361AQ2
1000
41304
1000
DIRITTI: IMBARCO PAX
1010
-2.5872484035789962
1020
-6.113745911861769
1030
0.0
1040
0.2032
1040
0.0
1070
     4
1002
{
1005
0
1005
0
1005
0
1005
0
1005
0
1005
0
1002
}
  0
VERTEX
  5
288
  8
RM$
 10
12.25353189038205
 20
41.796487030515713
 30
0.0
  0
VERTEX
  5
289
  8
RM$
 10
12.25353185975813
 20
41.79648704480023
 30
0.0
  0
VERTEX
  5
28A
  8
RM$
 10
12.25352915264101
 20
41.796483794843112
 30
0.0
  0
VERTEX
  5
28B
  8
RM$
 10
12.25352958475794
 20
41.796483593288258
 30
0.0
  0
VERTEX
  5
28C
  8
RM$
 10
12.25353082211355
 20
41.796485078762352
 30
0.0
  0
VERTEX
  5
28D
  8
RM$
 10
12.2535450904664
 20
41.79647842366537
 30
0.0
  0
VERTEX
  5
28E
  8
RM$
 10
12.253538091617219
 20
41.796470021163323
 30
0.0
  0
VERTEX
  5
28F
  8
RM$
 10
12.25353807566405
 20
41.796470027630839
 30
0.0
  0
VERTEX
  5
290
  8
RM$
 10
12.25352382265368
 20
41.796476675748117
 30
0.0
  0
VERTEX
  5
291
  8
RM$
 10
12.253525153505061
 20
41.796478273466327
 30
0.0
  0
VERTEX
  5
292
  8
RM$
 10
12.25352512288099
 20
41.796478287750489
 30
0.0
  0
VERTEX
  5
293
  8
RM$
 10
12.25352475201205
 20
41.79647846073707
 30
0.0
  0
VERTEX
  5
294
  8
RM$
 10
12.253524623681299
 20
41.796478306673023
 30
0.0
  0
VERTEX
  5
295
  8
RM$
 10
12.253524593057151
 20
41.796478320957227
 30
0.0
  0
VERTEX
  5
296
  8
RM$
 10
12.253521960834339
 20
41.796475160911228
 30
0.0
  0
VERTEX
  5
297
  8
RM$
 10
12.253521995002711
 20
41.796475144973861
 30
0.0
  0
VERTEX
  5
298
  8
RM$
 10
12.25352239311669
 20
41.79647495927923
 30
0.0
  0
VERTEX
  5
299
  8
RM$
 10
12.25352355557858
 20
41.796476354842007
 30
0.0
  0
VERTEX
  5
29A
  8
RM$
 10
12.25353782390351
 20
41.796469699758312
 30
0.0
  0
VERTEX
  5
29B
  8
RM$
 10
12.25353082506599
 20
41.796461297267648
 30
0.0
  0
VERTEX
  5
29C
  8
RM$
 10
12.25351655671437
 20
41.796467952540347
 30
0.0
  0
VERTEX
  5
29D
  8
RM$
 10
12.253517961864979
 20
41.796469639457058
 30
0.0
  0
VERTEX
  5
29E
  8
RM$
 10
12.253517560371989
 20
41.796469826727773
 30
0.0
  0
VERTEX
  5
29F
  8
RM$
 10
12.25351743204101
 20
41.796469672663399
 30
0.0
  0
VERTEX
  5
2A0
  8
RM$
 10
12.253517401416859
 20
41.796469686947603
 30
0.0
  0
VERTEX
  5
2A1
  8
RM$
 10
12.25351612456797
 20
41.796468154060847
 30
0.0
  0
VERTEX
  5
2A2
  8
RM$
 10
12.25351530748074
 20
41.796468535179621
 30
0.0
  0
VERTEX
  5
2A3
  8
RM$
 10
12.25351435306248
 20
41.796467389377753
 30
0.0
  0
VERTEX
  5
2A4
  8
RM$
 10
12.25352776829221
 20
41.796461132082968
 30
0.0
  0
VERTEX
  5
2A5
  8
RM$
 10
12.253496041845141
 20
41.796423042326992
 30
0.0
  0
VERTEX
  5
2A6
  8
RM$
 10
12.25348854658057
 20
41.796426538387621
 30
0.0
  0
VERTEX
  5
2A7
  8
RM$
 10
12.25348759207659
 20
41.796425392481297
 30
0.0
  0
VERTEX
  5
2A8
  8
RM$
 10
12.25349851042772
 20
41.796420299769792
 30
0.0
  0
VERTEX
  5
2A9
  8
RM$
 10
12.253488966169741
 20
41.796408841645402
 30
0.0
  0
VERTEX
  5
2AA
  8
RM$
 10
12.25348830264701
 20
41.796409151136316
 30
0.0
  0
VERTEX
  5
2AB
  8
RM$
 10
12.253488270660849
 20
41.796409112736079
 30
0.0
  0
VERTEX
  5
2AC
  8
RM$
 10
12.25348782722892
 20
41.796409319562947
 30
0.0
  0
VERTEX
  5
2AD
  8
RM$
 10
12.253487731787841
 20
41.796409204980321
 30
0.0
  0
VERTEX
  5
2AE
  8
RM$
 10
12.253487409601769
 20
41.796409355255349
 30
0.0
  0
VERTEX
  5
2AF
  8
RM$
 10
12.25347858978429
 20
41.79641346902077
 30
0.0
  0
VERTEX
  5
2B0
  8
RM$
 10
12.25347826759814
 20
41.796413619295748
 30
0.0
  0
VERTEX
  5
2B1
  8
RM$
 10
12.2534783630392
 20
41.796413733878389
 30
0.0
  0
VERTEX
  5
2B2
  8
RM$
 10
12.25347791962505
 20
41.796413940696901
 30
0.0
  0
VERTEX
  5
2B3
  8
RM$
 10
12.253477951691661
 20
41.79641397919368
 30
0.0
  0
VERTEX
  5
2B4
  8
RM$
 10
12.253459470536701
 20
41.796422599463931
 30
0.0
  0
VERTEX
  5
2B5
  8
RM$
 10
12.25345793932985
 20
41.796423313673358
 30
0.0
  0
VERTEX
  5
2B6
  8
RM$
 10
12.253437827664889
 20
41.796432694396067
 30
0.0
  0
VERTEX
  5
2B7
  8
RM$
 10
12.25345055339076
 20
41.796447971967673
 30
0.0
  0
VERTEX
  5
2B8
  8
RM$
 10
12.25347066501724
 20
41.796438591193237
 30
0.0
  0
VERTEX
  5
2B9
  8
RM$
 10
12.25346415889123
 20
41.796430780420181
 30
0.0
  0
VERTEX
  5
2BA
  8
RM$
 10
12.25346568875244
 20
41.796430066838532
 30
0.0
  0
VERTEX
  5
2BB
  8
RM$
 10
12.253473149307901
 20
41.796439023428157
 30
0.0
  0
VERTEX
  5
2BC
  8
RM$
 10
12.25345150814187
 20
41.796449117634353
 30
0.0
  0
VERTEX
  5
2BD
  8
RM$
 10
12.2534800541903
 20
41.796483387662967
 30
0.0
  0
VERTEX
  5
2BE
  8
RM$
 10
12.25349557035493
 20
41.796476150325852
 30
0.0
  0
VERTEX
  5
2BF
  8
RM$
 10
12.253496524785779
 20
41.79647729614328
 30
0.0
  0
VERTEX
  5
2C0
  8
RM$
 10
12.25349570765828
 20
41.796477677280592
 30
0.0
  0
VERTEX
  5
2C1
  8
RM$
 10
12.253496997199941
 20
41.796479225406621
 30
0.0
  0
VERTEX
  5
2C2
  8
RM$
 10
12.25349696657498
 20
41.796479239690797
 30
0.0
  0
VERTEX
  5
2C3
  8
RM$
 10
12.253497149584989
 20
41.796479459398739
 30
0.0
  0
VERTEX
  5
2C4
  8
RM$
 10
12.25349678209508
 20
41.796479630809067
 30
0.0
  0
VERTEX
  5
2C5
  8
RM$
 10
12.253496727416
 20
41.796479565165541
 30
0.0
  0
VERTEX
  5
2C6
  8
RM$
 10
12.25349669341281
 20
41.796479581025842
 30
0.0
  0
VERTEX
  5
2C7
  8
RM$
 10
12.25349527554074
 20
41.796477878835567
 30
0.0
  0
VERTEX
  5
2C8
  8
RM$
 10
12.253481008380049
 20
41.796484533544778
 30
0.0
  0
VERTEX
  5
2C9
  8
RM$
 10
12.25348800602765
 20
41.796492934525389
 30
0.0
  0
VERTEX
  5
2CA
  8
RM$
 10
12.253488007459159
 20
41.796492936243972
 30
0.0
  0
VERTEX
  5
2CB
  8
RM$
 10
12.25348802201518
 20
41.796492929454551
 30
0.0
  0
VERTEX
  5
2CC
  8
RM$
 10
12.253502274700709
 20
41.796486281496321
 30
0.0
  0
VERTEX
  5
2CD
  8
RM$
 10
12.253501018602449
 20
41.796484773520142
 30
0.0
  0
VERTEX
  5
2CE
  8
RM$
 10
12.253501049226481
 20
41.796484759236009
 30
0.0
  0
VERTEX
  5
2CF
  8
RM$
 10
12.253501416716389
 20
41.796484587825653
 30
0.0
  0
VERTEX
  5
2D0
  8
RM$
 10
12.253501522777301
 20
41.796484715154278
 30
0.0
  0
VERTEX
  5
2D1
  8
RM$
 10
12.25350155678057
 20
41.796484699293963
 30
0.0
  0
VERTEX
  5
2D2
  8
RM$
 10
12.25350417691077
 20
41.796487844269997
 30
0.0
  0
VERTEX
  5
2D3
  8
RM$
 10
12.25350374479347
 20
41.796488045824873
 30
0.0
  0
VERTEX
  5
2D4
  8
RM$
 10
12.253502542273401
 20
41.796486602170802
 30
0.0
  0
VERTEX
  5
2D5
  8
RM$
 10
12.25348827469676
 20
41.796493257074289
 30
0.0
  0
VERTEX
  5
2D6
  8
RM$
 10
12.253495273777601
 20
41.796501659772922
 30
0.0
  0
VERTEX
  5
2D7
  8
RM$
 10
12.25349528849968
 20
41.796501652906038
 30
0.0
  0
VERTEX
  5
2D8
  8
RM$
 10
12.2535095415185
 20
41.796495004792632
 30
0.0
  0
VERTEX
  5
2D9
  8
RM$
 10
12.253508899932759
 20
41.79649423469192
 30
0.0
  0
VERTEX
  5
2DA
  8
RM$
 10
12.25350819831516
 20
41.796493392383347
 30
0.0
  0
VERTEX
  5
2DB
  8
RM$
 10
12.253508596429191
 20
41.796493206688808
 30
0.0
  0
VERTEX
  5
2DC
  8
RM$
 10
12.25351144339697
 20
41.796496567720517
 30
0.0
  0
VERTEX
  5
2DD
  8
RM$
 10
12.25351101127964
 20
41.796496769275407
 30
0.0
  0
VERTEX
  5
2DE
  8
RM$
 10
12.253509808759251
 20
41.796495325621443
 30
0.0
  0
VERTEX
  5
2DF
  8
RM$
 10
12.253495540951761
 20
41.796501980526983
 30
0.0
  0
VERTEX
  5
2E0
  8
RM$
 10
12.253502540098051
 20
41.796510383301552
 30
0.0
  0
VERTEX
  5
2E1
  8
RM$
 10
12.25351756163861
 20
41.796503376893732
 30
0.0
  0
VERTEX
  5
2E2
  8
RM$
 10
12.253517764723069
 20
41.796503282170221
 30
0.0
  0
VERTEX
  5
2E3
  8
RM$
 10
12.253518057020949
 20
41.79650314583543
 30
0.0
  0
VERTEX
  5
2E4
  8
RM$
 10
12.25351901145258
 20
41.796504291652667
 30
0.0
  0
VERTEX
  5
2E5
  8
RM$
 10
12.253503495502599
 20
41.79651152866505
 30
0.0
  0
VERTEX
  5
2E6
  8
RM$
 10
12.25351707290835
 20
41.79652783027641
 30
0.0
  0
VERTEX
  5
2E7
  8
RM$
 10
12.253543061245139
 20
41.796515536028799
 30
0.0
  0
VERTEX
  5
2E8
  8
RM$
 10
12.253543165136019
 20
41.796515659949513
 30
0.0
  0
VERTEX
  5
2E9
  8
RM$
 10
12.25356463442397
 20
41.796505645915182
 30
0.0
  0
VERTEX
  5
2EA
  8
RM$
 10
12.25355105601032
 20
41.796489344730631
 30
0.0
  0
VERTEX
  5
2EB
  8
RM$
 10
12.253537793708199
 20
41.796495530667372
 30
0.0
  0
VERTEX
  5
2EC
  8
RM$
 10
12.25353683927635
 20
41.796494384850291
 30
0.0
  0
VERTEX
  5
2ED
  8
RM$
 10
12.25353765635089
 20
41.796494003742218
 30
0.0
  0
VERTEX
  5
2EE
  8
RM$
 10
12.25353641934289
 20
41.796492518686009
 30
0.0
  0
VERTEX
  5
2EF
  8
RM$
 10
12.25353645337859
 20
41.79649250286456
 30
0.0
  0
VERTEX
  5
2F0
  8
RM$
 10
12.253536849462719
 20
41.796492314732959
 30
0.0
  0
VERTEX
  5
2F1
  8
RM$
 10
12.253538096243069
 20
41.796493811521181
 30
0.0
  0
VERTEX
  5
2F2
  8
RM$
 10
12.253552356629459
 20
41.796487147089671
 30
0.0
  0
VERTEX
  5
2F3
  8
RM$
 10
12.25354535759611
 20
41.796478744369182
 30
0.0
  0
VERTEX
  5
2F4
  8
RM$
 10
12.253531089354411
 20
41.796485399591162
 30
0.0
  0
VERTEX
  5
2F5
  8
RM$
 10
12.253532420206151
 20
41.796486997309287
 30
0.0
  0
SEQEND
  5
2F6
  8
RM$
  0
POLYLINE
  5
2F7
  8
RM$
 66
     1
 10
0.0
 20
0.0
 30
0.0
 70
     1
1001
AFM10
1070
     3
1000
rm
1002
{
1000
FCO361A
1000
Q2
1000
41
1002
}
1000
FCO361AQ2
1000
41664
1000
NON OPERATIVO
1010
-21.711683080880899
1020
7.3121043444843963
1030
0.0
1040
0.2032
1040
0.0
1070
     4
1002
{
1005
0
1005
0
1005
0
1005
0
1005
0
1005
0
1002
}
  0
VERTEX
  5
2F8
  8
RM$
 10
12.253431429808071
 20
41.796434225473028
 30
0.0
  0
VERTEX
  5
2F9
  8
RM$
 10
12.25346336192338
 20
41.796419235376973
 30
0.0
  0
VERTEX
  5
2FA
  8
RM$
 10
12.2534529393275
 20
41.796406739406819
 30
0.0
  0
VERTEX
  5
2FB
  8
RM$
 10
12.25343771050704
 20
41.796413856355052
 30
0.0
  0
VERTEX
  5
2FC
  8
RM$
 10
12.253420928671551
 20
41.796421699075978
 30
0.0
  0
VERTEX
  5
2FD
  8
RM$
 10
12.2534267530066
 20
41.796428517657688
 30
0.0
  0
SEQEND
  5
2FE
  8
RM$
  0
POLYLINE
  5
2FF
  8
RM$
 66
     1
 10
0.0
 20
0.0
 30
0.0
 70
     1
1001
AFM10
1070
     3
1000
rm
1002
{
1000
FCO361A
1000
Q2
1000
44
1002
}
1000
FCO361AQ2
1000
480F0
1000

1010
1.630424206668976
1020
1.179501735023222
1030
0.0
1040
0.2032
1040
0.0
1070
     4
1002
{
1005
0
1005
0
1005
0
1005
0
1005
0
1005
0
1002
}
  0
VERTEX
  5
300
  8
RM$
 10
12.254261068505111
 20
41.79611637009144
 30
0.0
  0
VERTEX
  5
301
  8
RM$
 10
12.254284841466781
 20
41.796105211145232
 30
0.0
  0
VERTEX
  5
302
  8
RM$
 10
12.254287978410209
 20
41.796103738499127
 30
0.0
  0
VERTEX
  5
303
  8
RM$
 10
12.25427455444658
 20
41.79608772608335
 30
0.0
  0
VERTEX
  5
304
  8
RM$
 10
12.254286173960359
 20
41.79608227345291
 30
0.0
  0
VERTEX
  5
305
  8
RM$
 10
12.2542996515448
 20
41.796075946362677
 30
0.0
  0
VERTEX
  5
306
  8
RM$
 10
12.254315265039169
 20
41.796094570491753
 30
0.0
  0
VERTEX
  5
307
  8
RM$
 10
12.254325454564089
 20
41.796089786988063
 30
0.0
  0
VERTEX
  5
308
  8
RM$
 10
12.254347565561719
 20
41.796116161440331
 30
0.0
  0
VERTEX
  5
309
  8
RM$
 10
12.2543110372053
 20
41.796133309783613
 30
0.0
  0
VERTEX
  5
30A
  8
RM$
 10
12.25430388188677
 20
41.796136664413062
 30
0.0
  0
VERTEX
  5
30B
  8
RM$
 10
12.25428531932643
 20
41.796145357695259
 30
0.0
  0
SEQEND
  5
30C
  8
RM$
  0
POLYLINE
  5
30D
  8
RM$
 66
     1
 10
0.0
 20
0.0
 30
0.0
 70
     1
1001
AFM10
1070
     3
1000
rm
1002
{
1000
FCO361A
1000
Q2
1000
43
1002
}
1000
FCO361AQ2
1000
48100
1000
NON OPERATIVO
1010
0.2627585388836451
1020
-1.980003563454374
1030
0.0
1040
0.2032
1040
0.0
1070
     4
1002
{
1005
0
1005
0
1005
0
1005
0
1005
0
1005
0
1002
}
  0
VERTEX
  5
30E
  8
RM$
 10
12.25426031056808
 20
41.796115450789607
 30
0.0
  0
VERTEX
  5
30F
  8
RM$
 10
12.25427489992904
 20
41.79610860273894
 30
0.0
  0
VERTEX
  5
310
  8
RM$
 10
12.254285987784391
 20
41.796103396571539
 30
0.0
  0
VERTEX
  5
311
  8
RM$
 10
12.25427333087462
 20
41.796088299114871
 30
0.0
  0
VERTEX
  5
312
  8
RM$
 10
12.25427141691881
 20
41.796089197922633
 30
0.0
  0
VERTEX
  5
313
  8
RM$
 10
12.25426224248463
 20
41.796093504586551
 30
0.0
  0
VERTEX
  5
314
  8
RM$
 10
12.25425295271666
 20
41.796097865671591
 30
0.0
  0
VERTEX
  5
315
  8
RM$
 10
12.254247709373031
 20
41.796100327170592
 30
0.0
  0
VERTEX
  5
316
  8
RM$
 10
12.25425845034284
 20
41.796113242415977
 30
0.0
  0
VERTEX
  5
317
  8
RM$
 10
12.254259644431929
 20
41.796114667860749
 30
0.0
  0
SEQEND
  5
318
  8
RM$
  0
POLYLINE
  5
319
  8
RM$
 66
     1
 10
0.0
 20
0.0
 30
0.0
 70
     1
1001
AFM10
1070
     3
1000
rm
1002
{
1000
FCO361A
1000
Q2
1000
45
1002
}
1000
FCO361AQ2
1000
A3D3D
1000
RETAIL: SUBCONCESSIONI
1010
-64.341180739575066
1020
3.987135896459221
1030
0.0
1040
0.2032
1040
0.0
1070
     4
1002
{
1005
0
1005
0
1005
0
1005
0
1005
0
1005
0
1002
}
  0
VERTEX
  5
31A
  8
RM$
 10
12.253767184815921
 20
41.796248047716482
 30
0.0
  0
VERTEX
  5
31B
  8
RM$
 10
12.25377245216727
 20
41.796254330805517
 30
0.0
  0
VERTEX
  5
31C
  8
RM$
 10
12.253798129929439
 20
41.796242276501999
 30
0.0
  0
VERTEX
  5
31D
  8
RM$
 10
12.25379286257502
 20
41.796235993413198
 30
0.0
  0
VERTEX
  5
31E
  8
RM$
 10
12.25379388153352
 20
41.796235515067707
 30
0.0
  0
VERTEX
  5
31F
  8
RM$
 10
12.25378905928312
 20
41.79622975344455
 30
0.0
  0
VERTEX
  5
320
  8
RM$
 10
12.253788034158299
 20
41.796230233893851
 30
0.0
  0
VERTEX
  5
321
  8
RM$
 10
12.253786006184409
 20
41.796227814845487
 30
0.0
  0
VERTEX
  5
322
  8
RM$
 10
12.25377235646792
 20
41.796234217872879
 30
0.0
  0
VERTEX
  5
323
  8
RM$
 10
12.253773969374629
 20
41.796236143239867
 30
0.0
  0
VERTEX
  5
324
  8
RM$
 10
12.25377368791661
 20
41.796236275368997
 30
0.0
  0
VERTEX
  5
325
  8
RM$
 10
12.25377393078111
 20
41.796236565066643
 30
0.0
  0
VERTEX
  5
326
  8
RM$
 10
12.25377077200924
 20
41.796238047937059
 30
0.0
  0
VERTEX
  5
327
  8
RM$
 10
12.253770835932441
 20
41.796238124186992
 30
0.0
  0
VERTEX
  5
328
  8
RM$
 10
12.2537637032212
 20
41.796241472603782
 30
0.0
  0
VERTEX
  5
329
  8
RM$
 10
12.253763639298
 20
41.796241396353842
 30
0.0
  0
VERTEX
  5
32A
  8
RM$
 10
12.25376065374272
 20
41.796242797908072
 30
0.0
  0
VERTEX
  5
32B
  8
RM$
 10
12.253765656377571
 20
41.796248765234353
 30
0.0
  0
SEQEND
  5
32C
  8
RM$
  0
POLYLINE
  5
32D
  8
RM$
 66
     1
 10
0.0
 20
0.0
 30
0.0
 70
     1
1001
AFM10
1070
     3
1000
rm
1002
{
1000
FCO361A
1000
Q2
1000
46
1002
}
1000
FCO361AQ2
1000
A41CD
1000

1010
0.886252797092311
1020
-3.9435779646737501
1030
0.0
1040
0.2032
1040
0.0
1070
     4
1002
{
1005
0
1005
0
1005
0
1005
0
1005
0
1005
0
1002
}
  0
VERTEX
  5
32E
  8
RM$
 10
12.253613428518809
 20
41.796655901247192
 30
0.0
  0
VERTEX
  5
32F
  8
RM$
 10
12.253642978543519
 20
41.796642029278068
 30
0.0
  0
VERTEX
  5
330
  8
RM$
 10
12.253611016849909
 20
41.79660390427
 30
0.0
  0
VERTEX
  5
331
  8
RM$
 10
12.253581466836719
 20
41.79661777623128
 30
0.0
  0
SEQEND
  5
332
  8
RM$
  0
POLYLINE
  5
333
  8
RM$
 66
     1
 10
0.0
 20
0.0
 30
0.0
1001
AFM10
1070
     3
1000
rm
1002
{
1000
FCO361A
1000
Q2
1000
42
1002
}
1000
FCO361AQ2
1000
B3EFB
1000
DIRITTI: IMBARCO PAX
1010
11.323632590065239
1020
11.52987581503112
1030
0.0
1040
0.2032
1040
0.0
1070
     4
1002
{
1005
0
1005
0
1005
0
1005
0
1005
0
1005
0
1002
}
  0
VERTEX
  5
3FC
  8
RM$
 10
12.253643396893491
 20
41.79629476831041
 30
0.0
  0
VERTEX
  5
3FD
  8
RM$
 10
12.253651023969139
 20
41.796303866042088
 30
0.0
 42
0.0711982309328388
  0
VERTEX
  5
3FE
  8
RM$
 10
12.25365443653652
 20
41.796297878972013
 30
0.0
  0
VERTEX
  5
3FF
  8
RM$
 10
12.25365694101435
 20
41.79629901598306
 30
0.0
 42
0.1074521017536961
  0
VERTEX
  5
400
  8
RM$
 10
12.25366506415339
 20
41.796292612826718
 30
0.0
 42
0.0075012662077896
  0
VERTEX
  5
401
  8
RM$
 10
12.253665818946409
 20
41.796292242923599
 30
0.0
  0
VERTEX
  5
402
  8
RM$
 10
12.25368105970341
 20
41.796285015955348
 30
0.0
 42
0.0075012662139577
  0
VERTEX
  5
403
  8
RM$
 10
12.253681828986061
 20
41.796284663162481
 30
0.0
 42
0.1819628900819787
  0
VERTEX
  5
404
  8
RM$
 10
12.253701102101431
 20
41.796282152845812
 30
0.0
  0
VERTEX
  5
405
  8
RM$
 10
12.2537016065217
 20
41.796280469490661
 30
0.0
 42
0.0152035134048726
  0
VERTEX
  5
406
  8
RM$
 10
12.25370339058296
 20
41.796280768849691
 30
0.0
  0
VERTEX
  5
407
  8
RM$
 10
12.253702886162269
 20
41.796282452204281
 30
0.0
 42
0.1819628899359313
  0
VERTEX
  5
408
  8
RM$
 10
12.25371888152392
 20
41.796290880434597
 30
0.0
  0
VERTEX
  5
409
  8
RM$
 10
12.253720825227131
 20
41.796289958754578
 30
0.0
 42
0.0150033766466729
  0
VERTEX
  5
40A
  8
RM$
 10
12.25372179099702
 20
41.796291099238431
 30
0.0
  0
VERTEX
  5
40B
  8
RM$
 10
12.253718450658759
 20
41.796292683184951
 30
0.0
 42
0.1918819130231748
  0
VERTEX
  5
40C
  8
RM$
 10
12.25372606171633
 20
41.796306923075392
 30
0.0
  0
VERTEX
  5
40D
  8
RM$
 10
12.25372566167027
 20
41.796308258108937
 30
0.0
 42
0.0738719397592435
  0
VERTEX
  5
40E
  8
RM$
 10
12.25372216651431
 20
41.796314481618907
 30
0.0
  0
VERTEX
  5
40F
  8
RM$
 10
12.25371966203344
 20
41.796313344609068
 30
0.0
 42
0.1167568240336995
  0
VERTEX
  5
410
  8
RM$
 10
12.25371077685954
 20
41.796320109117417
 30
0.0
  0
VERTEX
  5
411
  8
RM$
 10
12.2537032979912
 20
41.796323655499968
 30
0.0
  0
VERTEX
  5
412
  8
RM$
 10
12.25370319634697
 20
41.796323703698327
 30
0.0
  0
VERTEX
  5
413
  8
RM$
 10
12.253695536096091
 20
41.796327336089178
 30
0.0
 42
0.1910565173998371
  0
VERTEX
  5
414
  8
RM$
 10
12.253675500929299
 20
41.796330207752881
 30
0.0
  0
VERTEX
  5
415
  8
RM$
 10
12.253674996508771
 20
41.796331891107819
 30
0.0
 42
0.0152035134048697
  0
VERTEX
  5
416
  8
RM$
 10
12.25367321244579
 20
41.796331591748917
 30
0.0
  0
VERTEX
  5
417
  8
RM$
 10
12.25367377546617
 20
41.796329712837696
 30
0.0
 42
0.3700300891038123
  0
VERTEX
  5
418
  8
RM$
 10
12.25365584182434
 20
41.796306326917168
 30
0.0
  0
VERTEX
  5
419
  8
RM$
 10
12.253653485451309
 20
41.796305931526049
 30
0.0
  0
VERTEX
  5
41A
  8
RM$
 10
12.253650963867241
 20
41.796305508413937
 30
0.0
  0
VERTEX
  5
41B
  8
RM$
 10
12.253650541326349
 20
41.796305437513062
 30
0.0
  0
VERTEX
  5
41C
  8
RM$
 10
12.25365094137339
 20
41.796304102479112
 30
0.0
 42
0.0025123357613064
  0
VERTEX
  5
41D
  8
RM$
 10
12.25365098188597
 20
41.796303985223673
 30
0.0
  0
VERTEX
  5
41E
  8
RM$
 10
12.253643295938581
 20
41.796294815706588
 30
0.0
  0
VERTEX
  5
41F
  8
RM$
 10
12.25344074057355
 20
41.796389910820089
 30
0.0
  0
VERTEX
  5
420
  8
RM$
 10
12.25345964022028
 20
41.796412541789529
 30
0.0
  0
VERTEX
  5
421
  8
RM$
 10
12.25346468618689
 20
41.796418613704397
 30
0.0
  0
VERTEX
  5
422
  8
RM$
 10
12.25347744051893
 20
41.796412626337961
 30
0.0
  0
VERTEX
  5
423
  8
RM$
 10
12.253490155983821
 20
41.796406695552847
 30
0.0
  0
VERTEX
  5
424
  8
RM$
 10
12.253488941990289
 20
41.796407261818914
 30
0.0
  0
VERTEX
  5
425
  8
RM$
 10
12.253548604937411
 20
41.796379432947539
 30
0.0
  0
VERTEX
  5
426
  8
RM$
 10
12.253554382369821
 20
41.796386368894808
 30
0.0
  0
VERTEX
  5
427
  8
RM$
 10
12.253563144159211
 20
41.79639688763146
 30
0.0
  0
VERTEX
  5
428
  8
RM$
 10
12.25355419159226
 20
41.796401063410421
 30
0.0
  0
VERTEX
  5
429
  8
RM$
 10
12.25356280763744
 20
41.796411408239351
 30
0.0
  0
VERTEX
  5
42A
  8
RM$
 10
12.25357419720282
 20
41.796406065134427
 30
0.0
  0
VERTEX
  5
42B
  8
RM$
 10
12.25358054815363
 20
41.796413709555317
 30
0.0
  0
VERTEX
  5
42C
  8
RM$
 10
12.25357038221494
 20
41.79641847416152
 30
0.0
  0
VERTEX
  5
42D
  8
RM$
 10
12.253569167060339
 20
41.796419042873872
 30
0.0
  0
VERTEX
  5
42E
  8
RM$
 10
12.253582927765169
 20
41.796435562911618
 30
0.0
  0
VERTEX
  5
42F
  8
RM$
 10
12.25359170625039
 20
41.796431468869017
 30
0.0
  0
VERTEX
  5
430
  8
RM$
 10
12.253582927765169
 20
41.796435562911618
 30
0.0
  0
VERTEX
  5
431
  8
RM$
 10
12.253582927765169
 20
41.796435562911618
 30
0.0
  0
VERTEX
  5
432
  8
RM$
 10
12.253582927765169
 20
41.796435562911618
 30
0.0
  0
VERTEX
  5
433
  8
RM$
 10
12.253582927765169
 20
41.796435562911618
 30
0.0
  0
VERTEX
  5
434
  8
RM$
 10
12.253582927765169
 20
41.796435562911618
 30
0.0
  0
VERTEX
  5
435
  8
RM$
 10
12.25359170625039
 20
41.796431468869017
 30
0.0
  0
VERTEX
  5
436
  8
RM$
 10
12.253629547539409
 20
41.796476607389252
 30
0.0
  0
VERTEX
  5
437
  8
RM$
 10
12.253544066856341
 20
41.79651673551863
 30
0.0
  0
VERTEX
  5
438
  8
RM$
 10
12.25356250837236
 20
41.796538731431014
 30
0.0
  0
VERTEX
  5
439
  8
RM$
 10
12.253568261463689
 20
41.796545593935249
 30
0.0
  0
VERTEX
  5
43A
  8
RM$
 10
12.2535949111214
 20
41.79657741172948
 30
0.0
  0
VERTEX
  5
43B
  8
RM$
 10
12.25364680337025
 20
41.79655305139223
 30
0.0
  0
VERTEX
  5
43C
  8
RM$
 10
12.253627265940301
 20
41.796529761221478
 30
0.0
  0
VERTEX
  5
43D
  8
RM$
 10
12.2536282942868
 20
41.796529278472477
 30
0.0
  0
VERTEX
  5
43E
  8
RM$
 10
12.2535977114369
 20
41.796492798225181
 30
0.0
  0
VERTEX
  5
43F
  8
RM$
 10
12.25363131103
 20
41.796477025187031
 30
0.0
  0
VERTEX
  5
440
  8
RM$
 10
12.253616122909101
 20
41.796458902083621
 30
0.0
  0
VERTEX
  5
441
  8
RM$
 10
12.253616122909101
 20
41.796458902083621
 30
0.0
  0
VERTEX
  5
442
  8
RM$
 10
12.25374033485288
 20
41.796400591711453
 30
0.0
  0
VERTEX
  5
443
  8
RM$
 10
12.25378610954316
 20
41.796455193297547
 30
0.0
  0
VERTEX
  5
444
  8
RM$
 10
12.253787134847411
 20
41.796454711974953
 30
0.0
  0
VERTEX
  5
445
  8
RM$
 10
12.25380664168315
 20
41.79647801650227
 30
0.0
  0
VERTEX
  5
446
  8
RM$
 10
12.25385550872169
 20
41.79645507615858
 30
0.0
  0
VERTEX
  5
447
  8
RM$
 10
12.25385607800821
 20
41.796455758260457
 30
0.0
  0
VERTEX
  5
448
  8
RM$
 10
12.253874422567741
 20
41.796447146505102
 30
0.0
  0
VERTEX
  5
449
  8
RM$
 10
12.253849450595929
 20
41.796417166464209
 30
0.0
  0
VERTEX
  5
44A
  8
RM$
 10
12.253844154774759
 20
41.796419652559358
 30
0.0
  0
VERTEX
  5
44B
  8
RM$
 10
12.25384210942817
 20
41.796417212806062
 30
0.0
  0
VERTEX
  5
44C
  8
RM$
 10
12.25384529622762
 20
41.796415716780032
 30
0.0
  0
VERTEX
  5
44D
  8
RM$
 10
12.253807273831759
 20
41.796370371810227
 30
0.0
  0
VERTEX
  5
44E
  8
RM$
 10
12.253819992659089
 20
41.796364401024157
 30
0.0
  0
VERTEX
  5
44F
  8
RM$
 10
12.25382037616111
 20
41.796364858477972
 30
0.0
  0
VERTEX
  5
450
  8
RM$
 10
12.25381432692104
 20
41.796367700569228
 30
0.0
  0
VERTEX
  5
451
  8
RM$
 10
12.25381475550577
 20
41.796368211799248
 30
0.0
  0
VERTEX
  5
452
  8
RM$
 10
12.25380870426752
 20
41.796371052520719
 30
0.0
  0
VERTEX
  5
453
  8
RM$
 10
12.2538279745169
 20
41.796394038657724
 30
0.0
  0
VERTEX
  5
454
  8
RM$
 10
12.253845907543241
 20
41.796415429801158
 30
0.0
  0
VERTEX
  5
455
  8
RM$
 10
12.25384741406393
 20
41.796414722572983
 30
0.0
  0
VERTEX
  5
456
  8
RM$
 10
12.253829564479799
 20
41.796393292212052
 30
0.0
  0
VERTEX
  5
457
  8
RM$
 10
12.253935998643509
 20
41.79634332716941
 30
0.0
  0
VERTEX
  5
458
  8
RM$
 10
12.25395481148697
 20
41.79636572557984
 30
0.0
  0
VERTEX
  5
459
  8
RM$
 10
12.25395687121903
 20
41.796364764208747
 30
0.0
  0
VERTEX
  5
45A
  8
RM$
 10
12.253938067412321
 20
41.796342398804597
 30
0.0
  0
VERTEX
  5
45B
  8
RM$
 10
12.253929335222301
 20
41.796331982876133
 30
0.0
  0
VERTEX
  5
45C
  8
RM$
 10
12.25392991590777
 20
41.796331710275417
 30
0.0
  0
VERTEX
  5
45D
  8
RM$
 10
12.2539189246279
 20
41.796318599543469
 30
0.0
  0
VERTEX
  5
45E
  8
RM$
 10
12.253897489529921
 20
41.796328662173138
 30
0.0
  0
VERTEX
  5
45F
  8
RM$
 10
12.25389906812125
 20
41.796330545165922
 30
0.0
  0
VERTEX
  5
460
  8
RM$
 10
12.253895196462169
 20
41.796332362700781
 30
0.0
  0
VERTEX
  5
461
  8
RM$
 10
12.253893616378599
 20
41.796330477927903
 30
0.0
  0
VERTEX
  5
462
  8
RM$
 10
12.25388230334703
 20
41.796335791030742
 30
0.0
  0
VERTEX
  5
463
  8
RM$
 10
12.253881918493059
 20
41.796335331964833
 30
0.0
  0
VERTEX
  5
464
  8
RM$
 10
12.25391915243981
 20
41.796317855110651
 30
0.0
  0
VERTEX
  5
465
  8
RM$
 10
12.253930527222231
 20
41.796331423296053
 30
0.0
  0
VERTEX
  5
466
  8
RM$
 10
12.253931642530009
 20
41.796330899718811
 30
0.0
  0
VERTEX
  5
467
  8
RM$
 10
12.25394038273498
 20
41.796341325295622
 30
0.0
  0
VERTEX
  5
468
  8
RM$
 10
12.253940601460091
 20
41.796341223882798
 30
0.0
  0
VERTEX
  5
469
  8
RM$
 10
12.2539586067914
 20
41.796362659620179
 30
0.0
  0
VERTEX
  5
46A
  8
RM$
 10
12.254001364779359
 20
41.79634270460388
 30
0.0
  0
VERTEX
  5
46B
  8
RM$
 10
12.254027651471651
 20
41.796374264454819
 30
0.0
  0
VERTEX
  5
46C
  8
RM$
 10
12.2540464986225
 20
41.796365416708973
 30
0.0
  0
VERTEX
  5
46D
  8
RM$
 10
12.25405303122127
 20
41.796362349996187
 30
0.0
  0
VERTEX
  5
46E
  8
RM$
 10
12.254058535043599
 20
41.79635976623949
 30
0.0
  0
VERTEX
  5
46F
  8
RM$
 10
12.25403782721016
 20
41.796335092557008
 30
0.0
  0
VERTEX
  5
470
  8
RM$
 10
12.25403884587582
 20
41.796334613564831
 30
0.0
  0
VERTEX
  5
471
  8
RM$
 10
12.25399423376053
 20
41.796281399995657
 30
0.0
  0
VERTEX
  5
472
  8
RM$
 10
12.254091181021071
 20
41.796235888263652
 30
0.0
  0
VERTEX
  5
473
  8
RM$
 10
12.25413637606197
 20
41.79628979702953
 30
0.0
  0
VERTEX
  5
474
  8
RM$
 10
12.25413739618927
 20
41.796289318131521
 30
0.0
  0
VERTEX
  5
475
  8
RM$
 10
12.254157508014661
 20
41.796313303524379
 30
0.0
  0
VERTEX
  5
476
  8
RM$
 10
12.254218005605059
 20
41.796284902943121
 30
0.0
  0
VERTEX
  5
477
  8
RM$
 10
12.254197301150381
 20
41.796260212527599
 30
0.0
  0
VERTEX
  5
478
  8
RM$
 10
12.25419832058253
 20
41.796259733954948
 30
0.0
  0
VERTEX
  5
479
  8
RM$
 10
12.25415371762964
 20
41.796206530476219
 30
0.0
  0
VERTEX
  5
47A
  8
RM$
 10
12.25424942326091
 20
41.796161601383048
 30
0.0
  0
VERTEX
  5
47B
  8
RM$
 10
12.254294001927979
 20
41.796214775795669
 30
0.0
  0
VERTEX
  5
47C
  8
RM$
 10
12.25429502268998
 20
41.796214296597149
 30
0.0
  0
VERTEX
  5
47D
  8
RM$
 10
12.25431575043533
 20
41.796239016529789
 30
0.0
  0
VERTEX
  5
47E
  8
RM$
 10
12.254344144829449
 20
41.796225690772552
 30
0.0
  0
VERTEX
  5
47F
  8
RM$
 10
12.25423909783636
 20
41.796100285410951
 30
0.0
  0
VERTEX
  5
480
  8
RM$
 10
12.25412486311723
 20
41.79615391302589
 30
0.0
  0
VERTEX
  5
481
  8
RM$
 10
12.25409353673486
 20
41.79611638765617
 30
0.0
  0
VERTEX
  5
482
  8
RM$
 10
12.254076215605171
 20
41.796124519060101
 30
0.0
  0
VERTEX
  5
483
  8
RM$
 10
12.2540653486175
 20
41.796111556598262
 30
0.0
  0
VERTEX
  5
484
  8
RM$
 10
12.254065858094799
 20
41.796111317424248
 30
0.0
  0
VERTEX
  5
485
  8
RM$
 10
12.25405690881472
 20
41.796100642455862
 30
0.0
  0
VERTEX
  5
486
  8
RM$
 10
12.253874340483129
 20
41.796186346252171
 30
0.0
  0
VERTEX
  5
487
  8
RM$
 10
12.2539292287578
 20
41.796251819551699
 30
0.0
  0
VERTEX
  5
488
  8
RM$
 10
12.25383199929411
 20
41.796297463559632
 30
0.0
  0
VERTEX
  5
489
  8
RM$
 10
12.253811651116269
 20
41.796307015916511
 30
0.0
  0
VERTEX
  5
48A
  8
RM$
 10
12.25376952504528
 20
41.796256767515217
 30
0.0
  0
VERTEX
  5
48B
  8
RM$
 10
12.253770136420689
 20
41.796256480508063
 30
0.0
  0
VERTEX
  5
48C
  8
RM$
 10
12.25376422983509
 20
41.796249434917662
 30
0.0
  0
VERTEX
  5
48D
  8
RM$
 10
12.253765656377571
 20
41.796248765234353
 30
0.0
  0
VERTEX
  5
48E
  8
RM$
 10
12.25376065374272
 20
41.796242797908072
 30
0.0
  0
VERTEX
  5
48F
  8
RM$
 10
12.253760531473599
 20
41.796242855306723
 30
0.0
  0
VERTEX
  5
490
  8
RM$
 10
12.253758680085239
 20
41.796240646902469
 30
0.0
  0
VERTEX
  5
491
  8
RM$
 10
12.253710646665301
 20
41.796263195935339
 30
0.0
  0
VERTEX
  5
492
  8
RM$
 10
12.253643396893541
 20
41.796294768310382
 30
0.0
  0
SEQEND
  5
493
  8
RM$
  0
POLYLINE
  5
334
  8
RM$
 66
     1
 10
0.0
 20
0.0
 30
0.0
 70
     1
1001
AFM10
1070
     3
1000
rm
1002
{
1000
FCO361A
1000
Q2
1000
47
1002
}
1000
FCO361AQ2
1000
B3EFF
1000
RETAIL: SUBCONCESSIONI
1010
1.895975468447431
1020
0.8261129453312605
1030
0.0
1040
0.2032
1040
0.0
1070
     4
1002
{
1005
0
1005
0
1005
0
1005
0
1005
0
1005
0
1002
}
  0
VERTEX
  5
494
  8
RM$
 10
12.25365098188597
 20
41.796303985223673
 30
0.0
 42
0.0725467765509067
  0
VERTEX
  5
495
  8
RM$
 10
12.25365443653652
 20
41.796297878972013
 30
0.0
  0
VERTEX
  5
496
  8
RM$
 10
12.25365694101435
 20
41.79629901598306
 30
0.0
 42
0.1074521017536961
  0
VERTEX
  5
497
  8
RM$
 10
12.25366506415339
 20
41.796292612826718
 30
0.0
 42
0.0075012662077896
  0
VERTEX
  5
498
  8
RM$
 10
12.253665818946409
 20
41.796292242923599
 30
0.0
  0
VERTEX
  5
499
  8
RM$
 10
12.25368105970341
 20
41.796285015955348
 30
0.0
 42
0.0075012662139577
  0
VERTEX
  5
49A
  8
RM$
 10
12.253681828986061
 20
41.796284663162481
 30
0.0
 42
0.1819628900819787
  0
VERTEX
  5
49B
  8
RM$
 10
12.253701102101431
 20
41.796282152845812
 30
0.0
  0
VERTEX
  5
49C
  8
RM$
 10
12.2537016065217
 20
41.796280469490661
 30
0.0
 42
0.0152035134048726
  0
VERTEX
  5
49D
  8
RM$
 10
12.25370339058296
 20
41.796280768849691
 30
0.0
  0
VERTEX
  5
49E
  8
RM$
 10
12.253702886162269
 20
41.796282452204281
 30
0.0
 42
0.1819628899359313
  0
VERTEX
  5
49F
  8
RM$
 10
12.25371888152392
 20
41.796290880434597
 30
0.0
  0
VERTEX
  5
4A0
  8
RM$
 10
12.253720825227131
 20
41.796289958754578
 30
0.0
 42
0.0150033766466729
  0
VERTEX
  5
4A1
  8
RM$
 10
12.25372179099702
 20
41.796291099238431
 30
0.0
  0
VERTEX
  5
4A2
  8
RM$
 10
12.253718450658759
 20
41.796292683184951
 30
0.0
 42
0.1918819130231748
  0
VERTEX
  5
4A3
  8
RM$
 10
12.25372606171633
 20
41.796306923075392
 30
0.0
  0
VERTEX
  5
4A4
  8
RM$
 10
12.25372566167027
 20
41.796308258108937
 30
0.0
 42
0.0738719397592435
  0
VERTEX
  5
4A5
  8
RM$
 10
12.25372216651431
 20
41.796314481618907
 30
0.0
  0
VERTEX
  5
4A6
  8
RM$
 10
12.25371966203344
 20
41.796313344609068
 30
0.0
 42
0.1167568240336995
  0
VERTEX
  5
4A7
  8
RM$
 10
12.25371077685954
 20
41.796320109117417
 30
0.0
  0
VERTEX
  5
4A8
  8
RM$
 10
12.2537032979912
 20
41.796323655499968
 30
0.0
  0
VERTEX
  5
4A9
  8
RM$
 10
12.25370319634697
 20
41.796323703698327
 30
0.0
  0
VERTEX
  5
4AA
  8
RM$
 10
12.253695536096091
 20
41.796327336089178
 30
0.0
 42
0.1910565173998371
  0
VERTEX
  5
4AB
  8
RM$
 10
12.253675500929299
 20
41.796330207752881
 30
0.0
  0
VERTEX
  5
4AC
  8
RM$
 10
12.253674996508771
 20
41.796331891107819
 30
0.0
 42
0.0152035134048697
  0
VERTEX
  5
4AD
  8
RM$
 10
12.25367321244579
 20
41.796331591748917
 30
0.0
  0
VERTEX
  5
4AE
  8
RM$
 10
12.25367377546617
 20
41.796329712837696
 30
0.0
 42
0.3700300891038123
  0
VERTEX
  5
4AF
  8
RM$
 10
12.25365584182434
 20
41.796306326917168
 30
0.0
  0
VERTEX
  5
4B0
  8
RM$
 10
12.253653485451309
 20
41.796305931526049
 30
0.0
  0
VERTEX
  5
4B1
  8
RM$
 10
12.253650963867241
 20
41.796305508413937
 30
0.0
  0
VERTEX
  5
4B2
  8
RM$
 10
12.253650541326349
 20
41.796305437513062
 30
0.0
  0
VERTEX
  5
4B3
  8
RM$
 10
12.25365094137339
 20
41.796304102479112
 30
0.0
 42
0.0025123357613064
  0
SEQEND
  5
4B4
  8
RM$
  0
ENDSEC
  0
EOF
